<svg xmlns="http://www.w3.org/2000/svg" xmlns:xlink="http://www.w3.org/1999/xlink" contentStyleType="text/css" data-diagram-type="CLASS" height="304px" preserveAspectRatio="none" style="width:621px;height:304px;background:#FFFFFF;" version="1.1" viewBox="0 0 621 304" width="621px" zoomAndPan="magnify"><?plantuml 1.2026.3beta4?><defs/><g><!--class client_cli--><g class="entity" data-qualified-name="client_cli" data-source-line="2" id="ent0002"><rect fill="#F1F1F1" height="48" rx="2.5" ry="2.5" style="stroke:#181818;stroke-width:0.5;" width="122.8496" x="10.67" y="7"/><ellipse cx="25.67" cy="23" fill="#ADD1B2" rx="11" ry="11" style="stroke:#181818;stroke-width:1;"/><path d="M28.6388,28.6406 Q28.0606,28.9375 27.42,29.0781 Q26.7794,29.2344 26.0763,29.2344 Q23.5763,29.2344 22.2481,27.5938 Q20.9356,25.9375 20.9356,22.8125 Q20.9356,19.6875 22.2481,18.0313 Q23.5763,16.375 26.0763,16.375 Q26.7794,16.375 27.42,16.5313 Q28.0763,16.6875 28.6388,16.9844 L28.6388,19.7031 Q28.0138,19.125 27.42,18.8594 Q26.8263,18.5781 26.2013,18.5781 Q24.8575,18.5781 24.17,19.6563 Q23.4825,20.7188 23.4825,22.8125 Q23.4825,24.9063 24.17,25.9844 Q24.8575,27.0469 26.2013,27.0469 Q26.8263,27.0469 27.42,26.7813 Q28.0138,26.5 28.6388,25.9219 L28.6388,28.6406 Z " fill="#000000"/><text fill="#000000" font-family="sans-serif" font-size="14" lengthAdjust="spacing" textLength="90.8496" x="39.67" y="27.8467">client_cli.cpp</text><line style="stroke:#181818;stroke-width:0.5;" x1="11.67" x2="132.5196" y1="39" y2="39"/><line style="stroke:#181818;stroke-width:0.5;" x1="11.67" x2="132.5196" y1="47" y2="47"/></g><!--class client_gui--><g class="entity" data-qualified-name="client_gui" data-source-line="3" id="ent0003"><rect fill="#F1F1F1" height="48" rx="2.5" ry="2.5" style="stroke:#181818;stroke-width:0.5;" width="129.0225" x="177.58" y="7"/><ellipse cx="192.58" cy="23" fill="#ADD1B2" rx="11" ry="11" style="stroke:#181818;stroke-width:1;"/><path d="M195.5488,28.6406 Q194.9706,28.9375 194.33,29.0781 Q193.6894,29.2344 192.9863,29.2344 Q190.4863,29.2344 189.1581,27.5938 Q187.8456,25.9375 187.8456,22.8125 Q187.8456,19.6875 189.1581,18.0313 Q190.4863,16.375 192.9863,16.375 Q193.6894,16.375 194.33,16.5313 Q194.9863,16.6875 195.5488,16.9844 L195.5488,19.7031 Q194.9238,19.125 194.33,18.8594 Q193.7363,18.5781 193.1113,18.5781 Q191.7675,18.5781 191.08,19.6563 Q190.3925,20.7188 190.3925,22.8125 Q190.3925,24.9063 191.08,25.9844 Q191.7675,27.0469 193.1113,27.0469 Q193.7363,27.0469 194.33,26.7813 Q194.9238,26.5 195.5488,25.9219 L195.5488,28.6406 Z " fill="#000000"/><text fill="#000000" font-family="sans-serif" font-size="14" lengthAdjust="spacing" textLength="97.0225" x="206.58" y="27.8467">client_gui.cpp</text><line style="stroke:#181818;stroke-width:0.5;" x1="178.58" x2="305.6025" y1="39" y2="39"/><line style="stroke:#181818;stroke-width:0.5;" x1="178.58" x2="305.6025" y1="47" y2="47"/></g><!--class server--><g class="entity" data-qualified-name="server" data-source-line="4" id="ent0004"><rect fill="#F1F1F1" height="48" rx="2.5" ry="2.5" style="stroke:#181818;stroke-width:0.5;" width="106.2383" x="379.98" y="7"/><ellipse cx="394.98" cy="23" fill="#ADD1B2" rx="11" ry="11" style="stroke:#181818;stroke-width:1;"/><path d="M397.9488,28.6406 Q397.3706,28.9375 396.73,29.0781 Q396.0894,29.2344 395.3863,29.2344 Q392.8863,29.2344 391.5581,27.5938 Q390.2456,25.9375 390.2456,22.8125 Q390.2456,19.6875 391.5581,18.0313 Q392.8863,16.375 395.3863,16.375 Q396.0894,16.375 396.73,16.5313 Q397.3863,16.6875 397.9488,16.9844 L397.9488,19.7031 Q397.3238,19.125 396.73,18.8594 Q396.1363,18.5781 395.5113,18.5781 Q394.1675,18.5781 393.48,19.6563 Q392.7925,20.7188 392.7925,22.8125 Q392.7925,24.9063 393.48,25.9844 Q394.1675,27.0469 395.5113,27.0469 Q396.1363,27.0469 396.73,26.7813 Q397.3238,26.5 397.9488,25.9219 L397.9488,28.6406 Z " fill="#000000"/><text fill="#000000" font-family="sans-serif" font-size="14" lengthAdjust="spacing" textLength="74.2383" x="408.98" y="27.8467">server.cpp</text><line style="stroke:#181818;stroke-width:0.5;" x1="380.98" x2="485.2183" y1="39" y2="39"/><line style="stroke:#181818;stroke-width:0.5;" x1="380.98" x2="485.2183" y1="47" y2="47"/></g><!--class chat_core--><g class="entity" data-qualified-name="chat_core" data-source-line="7" id="ent0005"><rect fill="#F1F1F1" height="48" rx="2.5" ry="2.5" style="stroke:#181818;stroke-width:0.5;" width="130.1914" x="7" y="116"/><ellipse cx="22" cy="132" fill="#ADD1B2" rx="11" ry="11" style="stroke:#181818;stroke-width:1;"/><path d="M24.9688,137.6406 Q24.3906,137.9375 23.75,138.0781 Q23.1094,138.2344 22.4063,138.2344 Q19.9063,138.2344 18.5781,136.5938 Q17.2656,134.9375 17.2656,131.8125 Q17.2656,128.6875 18.5781,127.0313 Q19.9063,125.375 22.4063,125.375 Q23.1094,125.375 23.75,125.5313 Q24.4063,125.6875 24.9688,125.9844 L24.9688,128.7031 Q24.3438,128.125 23.75,127.8594 Q23.1563,127.5781 22.5313,127.5781 Q21.1875,127.5781 20.5,128.6563 Q19.8125,129.7188 19.8125,131.8125 Q19.8125,133.9063 20.5,134.9844 Q21.1875,136.0469 22.5313,136.0469 Q23.1563,136.0469 23.75,135.7813 Q24.3438,135.5 24.9688,134.9219 L24.9688,137.6406 Z " fill="#000000"/><text fill="#000000" font-family="sans-serif" font-size="14" lengthAdjust="spacing" textLength="98.1914" x="36" y="136.8467">chat_core.cpp</text><line style="stroke:#181818;stroke-width:0.5;" x1="8" x2="136.1914" y1="148" y2="148"/><line style="stroke:#181818;stroke-width:0.5;" x1="8" x2="136.1914" y1="156" y2="156"/></g><!--class msg_switch--><g class="entity" data-qualified-name="msg_switch" data-source-line="8" id="ent0006"><rect fill="#F1F1F1" height="48" rx="2.5" ry="2.5" style="stroke:#181818;stroke-width:0.5;" width="143.4326" x="359.38" y="241"/><ellipse cx="374.38" cy="257" fill="#ADD1B2" rx="11" ry="11" style="stroke:#181818;stroke-width:1;"/><path d="M377.3488,262.6406 Q376.7706,262.9375 376.13,263.0781 Q375.4894,263.2344 374.7863,263.2344 Q372.2863,263.2344 370.9581,261.5938 Q369.6456,259.9375 369.6456,256.8125 Q369.6456,253.6875 370.9581,252.0313 Q372.2863,250.375 374.7863,250.375 Q375.4894,250.375 376.13,250.5313 Q376.7863,250.6875 377.3488,250.9844 L377.3488,253.7031 Q376.7238,253.125 376.13,252.8594 Q375.5363,252.5781 374.9113,252.5781 Q373.5675,252.5781 372.88,253.6563 Q372.1925,254.7188 372.1925,256.8125 Q372.1925,258.9063 372.88,259.9844 Q373.5675,261.0469 374.9113,261.0469 Q375.5363,261.0469 376.13,260.7813 Q376.7238,260.5 377.3488,259.9219 L377.3488,262.6406 Z " fill="#000000"/><text fill="#000000" font-family="sans-serif" font-size="14" lengthAdjust="spacing" textLength="111.4326" x="388.38" y="261.8467">msg_switch.cpp</text><line style="stroke:#181818;stroke-width:0.5;" x1="360.38" x2="501.8126" y1="273" y2="273"/><line style="stroke:#181818;stroke-width:0.5;" x1="360.38" x2="501.8126" y1="281" y2="281"/></g><!--class client_handler--><g class="entity" data-qualified-name="client_handler" data-source-line="9" id="ent0007"><rect fill="#F1F1F1" height="48" rx="2.5" ry="2.5" style="stroke:#181818;stroke-width:0.5;" width="160.8438" x="435.67" y="116"/><ellipse cx="450.67" cy="132" fill="#ADD1B2" rx="11" ry="11" style="stroke:#181818;stroke-width:1;"/><path d="M453.6388,137.6406 Q453.0606,137.9375 452.42,138.0781 Q451.7794,138.2344 451.0763,138.2344 Q448.5763,138.2344 447.2481,136.5938 Q445.9356,134.9375 445.9356,131.8125 Q445.9356,128.6875 447.2481,127.0313 Q448.5763,125.375 451.0763,125.375 Q451.7794,125.375 452.42,125.5313 Q453.0763,125.6875 453.6388,125.9844 L453.6388,128.7031 Q453.0138,128.125 452.42,127.8594 Q451.8263,127.5781 451.2013,127.5781 Q449.8575,127.5781 449.17,128.6563 Q448.4825,129.7188 448.4825,131.8125 Q448.4825,133.9063 449.17,134.9844 Q449.8575,136.0469 451.2013,136.0469 Q451.8263,136.0469 452.42,135.7813 Q453.0138,135.5 453.6388,134.9219 L453.6388,137.6406 Z " fill="#000000"/><text fill="#000000" font-family="sans-serif" font-size="14" lengthAdjust="spacing" textLength="128.8438" x="464.67" y="136.8467">client_handler.cpp</text><line style="stroke:#181818;stroke-width:0.5;" x1="436.67" x2="595.5138" y1="148" y2="148"/><line style="stroke:#181818;stroke-width:0.5;" x1="436.67" x2="595.5138" y1="156" y2="156"/></g><!--class key_gen--><g class="entity" data-qualified-name="key_gen" data-source-line="12" id="ent0008"><rect fill="#F1F1F1" height="48" rx="2.5" ry="2.5" style="stroke:#181818;stroke-width:0.5;" width="120.2998" x="11.95" y="241"/><ellipse cx="26.95" cy="257" fill="#ADD1B2" rx="11" ry="11" style="stroke:#181818;stroke-width:1;"/><path d="M29.9188,262.6406 Q29.3406,262.9375 28.7,263.0781 Q28.0594,263.2344 27.3563,263.2344 Q24.8563,263.2344 23.5281,261.5938 Q22.2156,259.9375 22.2156,256.8125 Q22.2156,253.6875 23.5281,252.0313 Q24.8563,250.375 27.3563,250.375 Q28.0594,250.375 28.7,250.5313 Q29.3563,250.6875 29.9188,250.9844 L29.9188,253.7031 Q29.2938,253.125 28.7,252.8594 Q28.1063,252.5781 27.4813,252.5781 Q26.1375,252.5781 25.45,253.6563 Q24.7625,254.7188 24.7625,256.8125 Q24.7625,258.9063 25.45,259.9844 Q26.1375,261.0469 27.4813,261.0469 Q28.1063,261.0469 28.7,260.7813 Q29.2938,260.5 29.9188,259.9219 L29.9188,262.6406 Z " fill="#000000"/><text fill="#000000" font-family="sans-serif" font-size="14" lengthAdjust="spacing" textLength="88.2998" x="40.95" y="261.8467">key_gen.cpp</text><line style="stroke:#181818;stroke-width:0.5;" x1="12.95" x2="131.2498" y1="273" y2="273"/><line style="stroke:#181818;stroke-width:0.5;" x1="12.95" x2="131.2498" y1="281" y2="281"/></g><!--class main_window--><g class="entity" data-qualified-name="main_window" data-source-line="15" id="ent0009"><rect fill="#F1F1F1" height="48" rx="2.5" ry="2.5" style="stroke:#181818;stroke-width:0.5;" width="157.0156" x="172.59" y="116"/><ellipse cx="187.59" cy="132" fill="#ADD1B2" rx="11" ry="11" style="stroke:#181818;stroke-width:1;"/><path d="M190.5588,137.6406 Q189.9806,137.9375 189.34,138.0781 Q188.6994,138.2344 187.9963,138.2344 Q185.4963,138.2344 184.1681,136.5938 Q182.8556,134.9375 182.8556,131.8125 Q182.8556,128.6875 184.1681,127.0313 Q185.4963,125.375 187.9963,125.375 Q188.6994,125.375 189.34,125.5313 Q189.9963,125.6875 190.5588,125.9844 L190.5588,128.7031 Q189.9338,128.125 189.34,127.8594 Q188.7463,127.5781 188.1213,127.5781 Q186.7775,127.5781 186.09,128.6563 Q185.4025,129.7188 185.4025,131.8125 Q185.4025,133.9063 186.09,134.9844 Q186.7775,136.0469 188.1213,136.0469 Q188.7463,136.0469 189.34,135.7813 Q189.9338,135.5 190.5588,134.9219 L190.5588,137.6406 Z " fill="#000000"/><text fill="#000000" font-family="sans-serif" font-size="14" lengthAdjust="spacing" textLength="125.0156" x="201.59" y="136.8467">main_window.cpp</text><line style="stroke:#181818;stroke-width:0.5;" x1="173.59" x2="328.6056" y1="148" y2="148"/><line style="stroke:#181818;stroke-width:0.5;" x1="173.59" x2="328.6056" y1="156" y2="156"/></g><!--link client_cli to chat_core--><g class="link" data-entity-1="ent0002" data-entity-2="ent0005" data-link-type="dependency" data-source-line="18" id="lnk10"><path codeLine="18" d="M72.1,55.48 C72.1,73.32 72.1,91.75 72.1,109.57" fill="none" id="client_cli-to-chat_core" style="stroke:#181818;stroke-width:1;"/><polygon fill="#181818" points="72.1,115.57,76.1,106.57,72.1,110.57,68.1,106.57,72.1,115.57" style="stroke:#181818;stroke-width:1;"/></g><!--link chat_core to key_gen--><g class="link" data-entity-1="ent0005" data-entity-2="ent0008" data-link-type="dependency" data-source-line="19" id="lnk11"><path codeLine="19" d="M72.1,164.42 C72.1,186.31 72.1,212.8 72.1,234.66" fill="none" id="chat_core-to-key_gen" style="stroke:#181818;stroke-width:1;"/><polygon fill="#181818" points="72.1,240.66,76.1,231.66,72.1,235.66,68.1,231.66,72.1,240.66" style="stroke:#181818;stroke-width:1;"/></g><!--link client_gui to chat_core--><g class="link" data-entity-1="ent0003" data-entity-2="ent0005" data-link-type="dependency" data-source-line="22" id="lnk12"><path codeLine="22" d="M204.79,55.48 C176.44,73.32 142.7183,94.5545 114.3983,112.3745" fill="none" id="client_gui-to-chat_core" style="stroke:#181818;stroke-width:1;"/><polygon fill="#181818" points="109.32,115.57,119.0677,114.1624,113.5519,112.9071,114.8071,107.3913,109.32,115.57" style="stroke:#181818;stroke-width:1;"/></g><!--link client_gui to main_window--><g class="link" data-entity-1="ent0003" data-entity-2="ent0009" data-link-type="dependency" data-source-line="23" id="lnk13"><path codeLine="23" d="M244.07,55.48 C245.57,73.32 247.1267,91.7711 248.6267,109.5911" fill="none" id="client_gui-to-main_window" style="stroke:#181818;stroke-width:1;"/><polygon fill="#181818" points="249.13,115.57,252.361,106.2662,248.7106,110.5876,244.3892,106.9372,249.13,115.57" style="stroke:#181818;stroke-width:1;"/></g><!--link server to client_handler--><g class="link" data-entity-1="ent0004" data-entity-2="ent0007" data-link-type="dependency" data-source-line="26" id="lnk14"><path codeLine="26" d="M451.31,55.48 C465.15,73.32 480.423,93.0087 494.243,110.8287" fill="none" id="server-to-client_handler" style="stroke:#181818;stroke-width:1;"/><polygon fill="#181818" points="497.92,115.57,495.5653,106.0068,494.8558,111.6189,489.2436,110.9094,497.92,115.57" style="stroke:#181818;stroke-width:1;"/></g><!--link server to msg_switch--><g class="link" data-entity-1="ent0004" data-entity-2="ent0006" data-link-type="dependency" data-source-line="27" id="lnk15"><path codeLine="27" d="M427.77,55.39 C424.24,72.16 419.93,95.34 418.1,116 C414.19,160.06 420.3045,205.6018 425.4645,234.7618" fill="none" id="server-to-msg_switch" style="stroke:#181818;stroke-width:1;"/><polygon fill="#181818" points="426.51,240.67,428.8806,231.1107,425.6388,235.7465,421.003,232.5047,426.51,240.67" style="stroke:#181818;stroke-width:1;"/></g><!--link client_handler to msg_switch--><g class="link" data-entity-1="ent0007" data-entity-2="ent0006" data-link-type="extension" data-source-line="28" id="lnk16"><path codeLine="28" d="M499.91,164.42 C484.78,186.31 472.5649,203.993 457.4549,225.853" fill="none" id="client_handler-to-msg_switch" style="stroke:#181818;stroke-width:1;"/><polygon fill="none" points="447.22,240.66,462.3905,229.2646,452.5192,222.4414,447.22,240.66" style="stroke:#181818;stroke-width:1;"/><text fill="#000000" font-family="sans-serif" font-size="13" lengthAdjust="spacing" textLength="126.1724" x="479.1" y="207.0669">forwards messages</text></g><?plantuml-src RL51RiCW4BppYbKkFhaFwA5I55LHrTwYdX71MnlLnXPBubZguqi06uXoyWuxCxixhk3zXl9YnRb7Oh8NH21xXTfozm51i4lmHKxJhYIrbuBaO4uYD5SqdX3Aq6GL73fXLoTNSZaQ34Ohodq6QZdDoihESn9yib4dTDF7eUNJDdnFop2WDKh29oujwkZmYmjto4jZlMcEtn_hCa9fFYlTZ7FO9k6LNRa3_MWuVDrbMvvr_PRkPUdo-tkSMCZ3r2tf1tdPoFO87YSVEOi_mMkBFF9EYfGzv5ZNVtaRNk5dDBCmZKi2YKIBz0y0?></g></svg>