<svg xmlns="http://www.w3.org/2000/svg" xmlns:xlink="http://www.w3.org/1999/xlink" contentStyleType="text/css" data-diagram-type="CLASS" height="304px" preserveAspectRatio="none" style="width:846px;height:304px;background:#FFFFFF;" version="1.1" viewBox="0 0 846 304" width="846px" zoomAndPan="magnify"><?plantuml 1.2026.3beta5?><defs/><g><!--class client_main--><g class="entity" data-qualified-name="client_main" data-source-line="2" id="ent0002"><rect fill="#F1F1F1" height="48" rx="2.5" ry="2.5" style="stroke:#181818;stroke-width:0.5;" width="142.3525" x="218.55" y="7"/><ellipse cx="233.55" cy="23" fill="#ADD1B2" rx="11" ry="11" style="stroke:#181818;stroke-width:1;"/><path d="M236.5188,28.6406 Q235.9406,28.9375 235.3,29.0781 Q234.6594,29.2344 233.9563,29.2344 Q231.4563,29.2344 230.1281,27.5938 Q228.8156,25.9375 228.8156,22.8125 Q228.8156,19.6875 230.1281,18.0313 Q231.4563,16.375 233.9563,16.375 Q234.6594,16.375 235.3,16.5313 Q235.9563,16.6875 236.5188,16.9844 L236.5188,19.7031 Q235.8938,19.125 235.3,18.8594 Q234.7063,18.5781 234.0813,18.5781 Q232.7375,18.5781 232.05,19.6563 Q231.3625,20.7188 231.3625,22.8125 Q231.3625,24.9063 232.05,25.9844 Q232.7375,27.0469 234.0813,27.0469 Q234.7063,27.0469 235.3,26.7813 Q235.8938,26.5 236.5188,25.9219 L236.5188,28.6406 Z " fill="#000000"/><text fill="#000000" font-family="sans-serif" font-size="14" lengthAdjust="spacing" textLength="110.3525" x="247.55" y="27.8467">client_main.cpp</text><line style="stroke:#181818;stroke-width:0.5;" x1="219.55" x2="359.9025" y1="39" y2="39"/><line style="stroke:#181818;stroke-width:0.5;" x1="219.55" x2="359.9025" y1="47" y2="47"/></g><!--class server_main--><g class="entity" data-qualified-name="server_main" data-source-line="3" id="ent0003"><rect fill="#F1F1F1" height="48" rx="2.5" ry="2.5" style="stroke:#181818;stroke-width:0.5;" width="148.2178" x="578.62" y="7"/><ellipse cx="593.62" cy="23" fill="#ADD1B2" rx="11" ry="11" style="stroke:#181818;stroke-width:1;"/><path d="M596.5888,28.6406 Q596.0106,28.9375 595.37,29.0781 Q594.7294,29.2344 594.0263,29.2344 Q591.5263,29.2344 590.1981,27.5938 Q588.8856,25.9375 588.8856,22.8125 Q588.8856,19.6875 590.1981,18.0313 Q591.5263,16.375 594.0263,16.375 Q594.7294,16.375 595.37,16.5313 Q596.0263,16.6875 596.5888,16.9844 L596.5888,19.7031 Q595.9638,19.125 595.37,18.8594 Q594.7763,18.5781 594.1513,18.5781 Q592.8075,18.5781 592.12,19.6563 Q591.4325,20.7188 591.4325,22.8125 Q591.4325,24.9063 592.12,25.9844 Q592.8075,27.0469 594.1513,27.0469 Q594.7763,27.0469 595.37,26.7813 Q595.9638,26.5 596.5888,25.9219 L596.5888,28.6406 Z " fill="#000000"/><text fill="#000000" font-family="sans-serif" font-size="14" lengthAdjust="spacing" textLength="116.2178" x="607.62" y="27.8467">server_main.cpp</text><line style="stroke:#181818;stroke-width:0.5;" x1="579.62" x2="725.8378" y1="39" y2="39"/><line style="stroke:#181818;stroke-width:0.5;" x1="579.62" x2="725.8378" y1="47" y2="47"/></g><!--class client_endpoint--><g class="entity" data-qualified-name="client_endpoint" data-source-line="6" id="ent0004"><rect fill="#F1F1F1" height="48" rx="2.5" ry="2.5" style="stroke:#181818;stroke-width:0.5;" width="169.4502" x="7" y="116"/><ellipse cx="22" cy="132" fill="#ADD1B2" rx="11" ry="11" style="stroke:#181818;stroke-width:1;"/><path d="M24.9688,137.6406 Q24.3906,137.9375 23.75,138.0781 Q23.1094,138.2344 22.4063,138.2344 Q19.9063,138.2344 18.5781,136.5938 Q17.2656,134.9375 17.2656,131.8125 Q17.2656,128.6875 18.5781,127.0313 Q19.9063,125.375 22.4063,125.375 Q23.1094,125.375 23.75,125.5313 Q24.4063,125.6875 24.9688,125.9844 L24.9688,128.7031 Q24.3438,128.125 23.75,127.8594 Q23.1563,127.5781 22.5313,127.5781 Q21.1875,127.5781 20.5,128.6563 Q19.8125,129.7188 19.8125,131.8125 Q19.8125,133.9063 20.5,134.9844 Q21.1875,136.0469 22.5313,136.0469 Q23.1563,136.0469 23.75,135.7813 Q24.3438,135.5 24.9688,134.9219 L24.9688,137.6406 Z " fill="#000000"/><text fill="#000000" font-family="sans-serif" font-size="14" lengthAdjust="spacing" textLength="137.4502" x="36" y="136.8467">client_endpoint.cpp</text><line style="stroke:#181818;stroke-width:0.5;" x1="8" x2="175.4502" y1="148" y2="148"/><line style="stroke:#181818;stroke-width:0.5;" x1="8" x2="175.4502" y1="156" y2="156"/></g><!--class msg_switch--><g class="entity" data-qualified-name="msg_switch" data-source-line="7" id="ent0005"><rect fill="#F1F1F1" height="48" rx="2.5" ry="2.5" style="stroke:#181818;stroke-width:0.5;" width="143.4326" x="585.01" y="241"/><ellipse cx="600.01" cy="257" fill="#ADD1B2" rx="11" ry="11" style="stroke:#181818;stroke-width:1;"/><path d="M602.9788,262.6406 Q602.4006,262.9375 601.76,263.0781 Q601.1194,263.2344 600.4163,263.2344 Q597.9163,263.2344 596.5881,261.5938 Q595.2756,259.9375 595.2756,256.8125 Q595.2756,253.6875 596.5881,252.0313 Q597.9163,250.375 600.4163,250.375 Q601.1194,250.375 601.76,250.5313 Q602.4163,250.6875 602.9788,250.9844 L602.9788,253.7031 Q602.3538,253.125 601.76,252.8594 Q601.1663,252.5781 600.5413,252.5781 Q599.1975,252.5781 598.51,253.6563 Q597.8225,254.7188 597.8225,256.8125 Q597.8225,258.9063 598.51,259.9844 Q599.1975,261.0469 600.5413,261.0469 Q601.1663,261.0469 601.76,260.7813 Q602.3538,260.5 602.9788,259.9219 L602.9788,262.6406 Z " fill="#000000"/><text fill="#000000" font-family="sans-serif" font-size="14" lengthAdjust="spacing" textLength="111.4326" x="614.01" y="261.8467">msg_switch.cpp</text><line style="stroke:#181818;stroke-width:0.5;" x1="586.01" x2="727.4426" y1="273" y2="273"/><line style="stroke:#181818;stroke-width:0.5;" x1="586.01" x2="727.4426" y1="281" y2="281"/></g><!--class client_handler--><g class="entity" data-qualified-name="client_handler" data-source-line="8" id="ent0006"><rect fill="#F1F1F1" height="48" rx="2.5" ry="2.5" style="stroke:#181818;stroke-width:0.5;" width="160.8438" x="661.3" y="116"/><ellipse cx="676.3" cy="132" fill="#ADD1B2" rx="11" ry="11" style="stroke:#181818;stroke-width:1;"/><path d="M679.2688,137.6406 Q678.6906,137.9375 678.05,138.0781 Q677.4094,138.2344 676.7063,138.2344 Q674.2063,138.2344 672.8781,136.5938 Q671.5656,134.9375 671.5656,131.8125 Q671.5656,128.6875 672.8781,127.0313 Q674.2063,125.375 676.7063,125.375 Q677.4094,125.375 678.05,125.5313 Q678.7063,125.6875 679.2688,125.9844 L679.2688,128.7031 Q678.6438,128.125 678.05,127.8594 Q677.4563,127.5781 676.8313,127.5781 Q675.4875,127.5781 674.8,128.6563 Q674.1125,129.7188 674.1125,131.8125 Q674.1125,133.9063 674.8,134.9844 Q675.4875,136.0469 676.8313,136.0469 Q677.4563,136.0469 678.05,135.7813 Q678.6438,135.5 679.2688,134.9219 L679.2688,137.6406 Z " fill="#000000"/><text fill="#000000" font-family="sans-serif" font-size="14" lengthAdjust="spacing" textLength="128.8438" x="690.3" y="136.8467">client_handler.cpp</text><line style="stroke:#181818;stroke-width:0.5;" x1="662.3" x2="821.1438" y1="148" y2="148"/><line style="stroke:#181818;stroke-width:0.5;" x1="662.3" x2="821.1438" y1="156" y2="156"/></g><!--class key_gen--><g class="entity" data-qualified-name="key_gen" data-source-line="11" id="ent0007"><rect fill="#F1F1F1" height="48" rx="2.5" ry="2.5" style="stroke:#181818;stroke-width:0.5;" width="120.2998" x="31.58" y="241"/><ellipse cx="46.58" cy="257" fill="#ADD1B2" rx="11" ry="11" style="stroke:#181818;stroke-width:1;"/><path d="M49.5488,262.6406 Q48.9706,262.9375 48.33,263.0781 Q47.6894,263.2344 46.9863,263.2344 Q44.4863,263.2344 43.1581,261.5938 Q41.8456,259.9375 41.8456,256.8125 Q41.8456,253.6875 43.1581,252.0313 Q44.4863,250.375 46.9863,250.375 Q47.6894,250.375 48.33,250.5313 Q48.9863,250.6875 49.5488,250.9844 L49.5488,253.7031 Q48.9238,253.125 48.33,252.8594 Q47.7363,252.5781 47.1113,252.5781 Q45.7675,252.5781 45.08,253.6563 Q44.3925,254.7188 44.3925,256.8125 Q44.3925,258.9063 45.08,259.9844 Q45.7675,261.0469 47.1113,261.0469 Q47.7363,261.0469 48.33,260.7813 Q48.9238,260.5 49.5488,259.9219 L49.5488,262.6406 Z " fill="#000000"/><text fill="#000000" font-family="sans-serif" font-size="14" lengthAdjust="spacing" textLength="88.2998" x="60.58" y="261.8467">key_gen.cpp</text><line style="stroke:#181818;stroke-width:0.5;" x1="32.58" x2="150.8798" y1="273" y2="273"/><line style="stroke:#181818;stroke-width:0.5;" x1="32.58" x2="150.8798" y1="281" y2="281"/></g><!--class main_window--><g class="entity" data-qualified-name="main_window" data-source-line="14" id="ent0008"><rect fill="#F1F1F1" height="48" rx="2.5" ry="2.5" style="stroke:#181818;stroke-width:0.5;" width="157.0156" x="211.22" y="116"/><ellipse cx="226.22" cy="132" fill="#ADD1B2" rx="11" ry="11" style="stroke:#181818;stroke-width:1;"/><path d="M229.1888,137.6406 Q228.6106,137.9375 227.97,138.0781 Q227.3294,138.2344 226.6263,138.2344 Q224.1263,138.2344 222.7981,136.5938 Q221.4856,134.9375 221.4856,131.8125 Q221.4856,128.6875 222.7981,127.0313 Q224.1263,125.375 226.6263,125.375 Q227.3294,125.375 227.97,125.5313 Q228.6263,125.6875 229.1888,125.9844 L229.1888,128.7031 Q228.5638,128.125 227.97,127.8594 Q227.3763,127.5781 226.7513,127.5781 Q225.4075,127.5781 224.72,128.6563 Q224.0325,129.7188 224.0325,131.8125 Q224.0325,133.9063 224.72,134.9844 Q225.4075,136.0469 226.7513,136.0469 Q227.3763,136.0469 227.97,135.7813 Q228.5638,135.5 229.1888,134.9219 L229.1888,137.6406 Z " fill="#000000"/><text fill="#000000" font-family="sans-serif" font-size="14" lengthAdjust="spacing" textLength="125.0156" x="240.22" y="136.8467">main_window.cpp</text><line style="stroke:#181818;stroke-width:0.5;" x1="212.22" x2="367.2356" y1="148" y2="148"/><line style="stroke:#181818;stroke-width:0.5;" x1="212.22" x2="367.2356" y1="156" y2="156"/></g><!--class startup_form--><g class="entity" data-qualified-name="startup_form" data-source-line="15" id="ent0009"><rect fill="#F1F1F1" height="48" rx="2.5" ry="2.5" style="stroke:#181818;stroke-width:0.5;" width="152.1758" x="403.64" y="116"/><ellipse cx="418.64" cy="132" fill="#ADD1B2" rx="11" ry="11" style="stroke:#181818;stroke-width:1;"/><path d="M421.6088,137.6406 Q421.0306,137.9375 420.39,138.0781 Q419.7494,138.2344 419.0463,138.2344 Q416.5463,138.2344 415.2181,136.5938 Q413.9056,134.9375 413.9056,131.8125 Q413.9056,128.6875 415.2181,127.0313 Q416.5463,125.375 419.0463,125.375 Q419.7494,125.375 420.39,125.5313 Q421.0463,125.6875 421.6088,125.9844 L421.6088,128.7031 Q420.9838,128.125 420.39,127.8594 Q419.7963,127.5781 419.1713,127.5781 Q417.8275,127.5781 417.14,128.6563 Q416.4525,129.7188 416.4525,131.8125 Q416.4525,133.9063 417.14,134.9844 Q417.8275,136.0469 419.1713,136.0469 Q419.7963,136.0469 420.39,135.7813 Q420.9838,135.5 421.6088,134.9219 L421.6088,137.6406 Z " fill="#000000"/><text fill="#000000" font-family="sans-serif" font-size="14" lengthAdjust="spacing" textLength="120.1758" x="432.64" y="136.8467">startup_form.cpp</text><line style="stroke:#181818;stroke-width:0.5;" x1="404.64" x2="554.8158" y1="148" y2="148"/><line style="stroke:#181818;stroke-width:0.5;" x1="404.64" x2="554.8158" y1="156" y2="156"/></g><!--link client_main to client_endpoint--><g class="link" data-entity-1="ent0002" data-entity-2="ent0004" data-link-type="dependency" data-source-line="18" id="lnk10"><path codeLine="18" d="M246.27,55.48 C213.26,73.32 173.3387,94.8978 140.3587,112.7178" fill="none" id="client_main-to-client_endpoint" style="stroke:#181818;stroke-width:1;"/><polygon fill="#181818" points="135.08,115.57,144.8996,114.8108,139.4789,113.1931,141.0966,107.7725,135.08,115.57" style="stroke:#181818;stroke-width:1;"/></g><!--link client_endpoint to key_gen--><g class="link" data-entity-1="ent0004" data-entity-2="ent0007" data-link-type="dependency" data-source-line="19" id="lnk11"><path codeLine="19" d="M91.73,164.42 C91.73,186.31 91.73,212.8 91.73,234.66" fill="none" id="client_endpoint-to-key_gen" style="stroke:#181818;stroke-width:1;"/><polygon fill="#181818" points="91.73,240.66,95.73,231.66,91.73,235.66,87.73,231.66,91.73,240.66" style="stroke:#181818;stroke-width:1;"/></g><!--link client_main to main_window--><g class="link" data-entity-1="ent0002" data-entity-2="ent0008" data-link-type="dependency" data-source-line="20" id="lnk12"><path codeLine="20" d="M289.73,55.48 C289.73,73.32 289.73,91.75 289.73,109.57" fill="none" id="client_main-to-main_window" style="stroke:#181818;stroke-width:1;"/><polygon fill="#181818" points="289.73,115.57,293.73,106.57,289.73,110.57,285.73,106.57,289.73,115.57" style="stroke:#181818;stroke-width:1;"/></g><!--link client_main to startup_form--><g class="link" data-entity-1="ent0002" data-entity-2="ent0009" data-link-type="dependency" data-source-line="21" id="lnk13"><path codeLine="21" d="M331.42,55.48 C363.1,73.32 401.2413,94.807 432.9013,112.627" fill="none" id="client_main-to-startup_form" style="stroke:#181818;stroke-width:1;"/><polygon fill="#181818" points="438.13,115.57,432.249,107.6698,433.7728,113.1175,428.325,114.6413,438.13,115.57" style="stroke:#181818;stroke-width:1;"/></g><!--link server_main to client_handler--><g class="link" data-entity-1="ent0003" data-entity-2="ent0006" data-link-type="dependency" data-source-line="24" id="lnk14"><path codeLine="24" d="M672.26,55.48 C687.1,73.32 703.5719,93.1381 718.4019,110.9581" fill="none" id="server_main-to-client_handler" style="stroke:#181818;stroke-width:1;"/><polygon fill="#181818" points="722.24,115.57,719.5575,106.0935,719.0416,111.7268,713.4083,111.2109,722.24,115.57" style="stroke:#181818;stroke-width:1;"/></g><!--link server_main to msg_switch--><g class="link" data-entity-1="ent0003" data-entity-2="ent0005" data-link-type="dependency" data-source-line="25" id="lnk15"><path codeLine="25" d="M649.53,55.48 C647.41,72.3 644.82,95.5 643.73,116 C642.59,137.3 642.35,142.71 643.73,164 C645.43,190.38 648.7207,214.5024 651.8907,234.7224" fill="none" id="server_main-to-msg_switch" style="stroke:#181818;stroke-width:1;"/><polygon fill="#181818" points="652.82,240.65,655.3778,231.1391,652.0456,235.7103,647.4743,232.3781,652.82,240.65" style="stroke:#181818;stroke-width:1;"/></g><!--link client_handler to msg_switch--><g class="link" data-entity-1="ent0006" data-entity-2="ent0005" data-link-type="extension" data-source-line="26" id="lnk16"><path codeLine="26" d="M725.54,164.42 C710.41,186.31 698.1949,203.993 683.0849,225.853" fill="none" id="client_handler-to-msg_switch" style="stroke:#181818;stroke-width:1;"/><polygon fill="none" points="672.85,240.66,688.0205,229.2646,678.1492,222.4414,672.85,240.66" style="stroke:#181818;stroke-width:1;"/><text fill="#000000" font-family="sans-serif" font-size="13" lengthAdjust="spacing" textLength="126.1724" x="704.73" y="207.0669">forwards messages</text></g><?plantuml-src PL51ReCm4Bpx5LOkdEW3UgXKLL4KzLZbR6tD1gnWWxoc5AcFhmCcti2DsPqP3xE5FFwY7W9yjqX2jq0aTMlG1MN1E0aa3mo_wBu_91gX_q6VQGmlD578ZmR2iokwgk-C2znvdN5tIxMYqGJTpCmCEIdf6t1LYvvRfj4Zo3jDrcBmHijFd6fqoU66aufebgRlX-PqEQzXuZ-fqRYg6vSq6Jyr4i27eLVNpjkb4ZPOROlOofmn-UUko_9jsvBOjdRdf9mxBKkrs_4aIuYl-Lo2Nv45IFtjrlaEObD-MVxnjNoLyQqHV1NhGoAeaVu1?></g></svg>