<svg xmlns="http://www.w3.org/2000/svg" xmlns:xlink="http://www.w3.org/1999/xlink" contentStyleType="text/css" data-diagram-type="CLASS" height="304px" preserveAspectRatio="none" style="width:627px;height:304px;background:#FFFFFF;" version="1.1" viewBox="0 0 627 304" width="627px" zoomAndPan="magnify"><?plantuml 1.2026.3beta5?><defs/><g><!--class client_main--><g class="entity" data-qualified-name="client_main" data-source-line="2" id="ent0002"><rect fill="#F1F1F1" height="48" rx="2.5" ry="2.5" style="stroke:#181818;stroke-width:0.5;" width="142.3525" x="147.92" y="7"/><ellipse cx="162.92" cy="23" fill="#ADD1B2" rx="11" ry="11" style="stroke:#181818;stroke-width:1;"/><path d="M165.8888,28.6406 Q165.3106,28.9375 164.67,29.0781 Q164.0294,29.2344 163.3263,29.2344 Q160.8263,29.2344 159.4981,27.5938 Q158.1856,25.9375 158.1856,22.8125 Q158.1856,19.6875 159.4981,18.0313 Q160.8263,16.375 163.3263,16.375 Q164.0294,16.375 164.67,16.5313 Q165.3263,16.6875 165.8888,16.9844 L165.8888,19.7031 Q165.2638,19.125 164.67,18.8594 Q164.0763,18.5781 163.4513,18.5781 Q162.1075,18.5781 161.42,19.6563 Q160.7325,20.7188 160.7325,22.8125 Q160.7325,24.9063 161.42,25.9844 Q162.1075,27.0469 163.4513,27.0469 Q164.0763,27.0469 164.67,26.7813 Q165.2638,26.5 165.8888,25.9219 L165.8888,28.6406 Z " fill="#000000"/><text fill="#000000" font-family="sans-serif" font-size="14" lengthAdjust="spacing" textLength="110.3525" x="176.92" y="27.8467">client_main.cpp</text><line style="stroke:#181818;stroke-width:0.5;" x1="148.92" x2="289.2725" y1="39" y2="39"/><line style="stroke:#181818;stroke-width:0.5;" x1="148.92" x2="289.2725" y1="47" y2="47"/></g><!--class server_main--><g class="entity" data-qualified-name="server_main" data-source-line="3" id="ent0003"><rect fill="#F1F1F1" height="48" rx="2.5" ry="2.5" style="stroke:#181818;stroke-width:0.5;" width="148.2178" x="341.99" y="7"/><ellipse cx="356.99" cy="23" fill="#ADD1B2" rx="11" ry="11" style="stroke:#181818;stroke-width:1;"/><path d="M359.9588,28.6406 Q359.3806,28.9375 358.74,29.0781 Q358.0994,29.2344 357.3963,29.2344 Q354.8963,29.2344 353.5681,27.5938 Q352.2556,25.9375 352.2556,22.8125 Q352.2556,19.6875 353.5681,18.0313 Q354.8963,16.375 357.3963,16.375 Q358.0994,16.375 358.74,16.5313 Q359.3963,16.6875 359.9588,16.9844 L359.9588,19.7031 Q359.3338,19.125 358.74,18.8594 Q358.1463,18.5781 357.5213,18.5781 Q356.1775,18.5781 355.49,19.6563 Q354.8025,20.7188 354.8025,22.8125 Q354.8025,24.9063 355.49,25.9844 Q356.1775,27.0469 357.5213,27.0469 Q358.1463,27.0469 358.74,26.7813 Q359.3338,26.5 359.9588,25.9219 L359.9588,28.6406 Z " fill="#000000"/><text fill="#000000" font-family="sans-serif" font-size="14" lengthAdjust="spacing" textLength="116.2178" x="370.99" y="27.8467">server_main.cpp</text><line style="stroke:#181818;stroke-width:0.5;" x1="342.99" x2="489.2078" y1="39" y2="39"/><line style="stroke:#181818;stroke-width:0.5;" x1="342.99" x2="489.2078" y1="47" y2="47"/></g><!--class chat_core--><g class="entity" data-qualified-name="chat_core" data-source-line="6" id="ent0004"><rect fill="#F1F1F1" height="48" rx="2.5" ry="2.5" style="stroke:#181818;stroke-width:0.5;" width="130.1914" x="7" y="116"/><ellipse cx="22" cy="132" fill="#ADD1B2" rx="11" ry="11" style="stroke:#181818;stroke-width:1;"/><path d="M24.9688,137.6406 Q24.3906,137.9375 23.75,138.0781 Q23.1094,138.2344 22.4063,138.2344 Q19.9063,138.2344 18.5781,136.5938 Q17.2656,134.9375 17.2656,131.8125 Q17.2656,128.6875 18.5781,127.0313 Q19.9063,125.375 22.4063,125.375 Q23.1094,125.375 23.75,125.5313 Q24.4063,125.6875 24.9688,125.9844 L24.9688,128.7031 Q24.3438,128.125 23.75,127.8594 Q23.1563,127.5781 22.5313,127.5781 Q21.1875,127.5781 20.5,128.6563 Q19.8125,129.7188 19.8125,131.8125 Q19.8125,133.9063 20.5,134.9844 Q21.1875,136.0469 22.5313,136.0469 Q23.1563,136.0469 23.75,135.7813 Q24.3438,135.5 24.9688,134.9219 L24.9688,137.6406 Z " fill="#000000"/><text fill="#000000" font-family="sans-serif" font-size="14" lengthAdjust="spacing" textLength="98.1914" x="36" y="136.8467">chat_core.cpp</text><line style="stroke:#181818;stroke-width:0.5;" x1="8" x2="136.1914" y1="148" y2="148"/><line style="stroke:#181818;stroke-width:0.5;" x1="8" x2="136.1914" y1="156" y2="156"/></g><!--class msg_switch--><g class="entity" data-qualified-name="msg_switch" data-source-line="7" id="ent0005"><rect fill="#F1F1F1" height="48" rx="2.5" ry="2.5" style="stroke:#181818;stroke-width:0.5;" width="143.4326" x="365.38" y="241"/><ellipse cx="380.38" cy="257" fill="#ADD1B2" rx="11" ry="11" style="stroke:#181818;stroke-width:1;"/><path d="M383.3488,262.6406 Q382.7706,262.9375 382.13,263.0781 Q381.4894,263.2344 380.7863,263.2344 Q378.2863,263.2344 376.9581,261.5938 Q375.6456,259.9375 375.6456,256.8125 Q375.6456,253.6875 376.9581,252.0313 Q378.2863,250.375 380.7863,250.375 Q381.4894,250.375 382.13,250.5313 Q382.7863,250.6875 383.3488,250.9844 L383.3488,253.7031 Q382.7238,253.125 382.13,252.8594 Q381.5363,252.5781 380.9113,252.5781 Q379.5675,252.5781 378.88,253.6563 Q378.1925,254.7188 378.1925,256.8125 Q378.1925,258.9063 378.88,259.9844 Q379.5675,261.0469 380.9113,261.0469 Q381.5363,261.0469 382.13,260.7813 Q382.7238,260.5 383.3488,259.9219 L383.3488,262.6406 Z " fill="#000000"/><text fill="#000000" font-family="sans-serif" font-size="14" lengthAdjust="spacing" textLength="111.4326" x="394.38" y="261.8467">msg_switch.cpp</text><line style="stroke:#181818;stroke-width:0.5;" x1="366.38" x2="507.8126" y1="273" y2="273"/><line style="stroke:#181818;stroke-width:0.5;" x1="366.38" x2="507.8126" y1="281" y2="281"/></g><!--class client_handler--><g class="entity" data-qualified-name="client_handler" data-source-line="8" id="ent0006"><rect fill="#F1F1F1" height="48" rx="2.5" ry="2.5" style="stroke:#181818;stroke-width:0.5;" width="160.8438" x="441.67" y="116"/><ellipse cx="456.67" cy="132" fill="#ADD1B2" rx="11" ry="11" style="stroke:#181818;stroke-width:1;"/><path d="M459.6388,137.6406 Q459.0606,137.9375 458.42,138.0781 Q457.7794,138.2344 457.0763,138.2344 Q454.5763,138.2344 453.2481,136.5938 Q451.9356,134.9375 451.9356,131.8125 Q451.9356,128.6875 453.2481,127.0313 Q454.5763,125.375 457.0763,125.375 Q457.7794,125.375 458.42,125.5313 Q459.0763,125.6875 459.6388,125.9844 L459.6388,128.7031 Q459.0138,128.125 458.42,127.8594 Q457.8263,127.5781 457.2013,127.5781 Q455.8575,127.5781 455.17,128.6563 Q454.4825,129.7188 454.4825,131.8125 Q454.4825,133.9063 455.17,134.9844 Q455.8575,136.0469 457.2013,136.0469 Q457.8263,136.0469 458.42,135.7813 Q459.0138,135.5 459.6388,134.9219 L459.6388,137.6406 Z " fill="#000000"/><text fill="#000000" font-family="sans-serif" font-size="14" lengthAdjust="spacing" textLength="128.8438" x="470.67" y="136.8467">client_handler.cpp</text><line style="stroke:#181818;stroke-width:0.5;" x1="442.67" x2="601.5138" y1="148" y2="148"/><line style="stroke:#181818;stroke-width:0.5;" x1="442.67" x2="601.5138" y1="156" y2="156"/></g><!--class key_gen--><g class="entity" data-qualified-name="key_gen" data-source-line="11" id="ent0007"><rect fill="#F1F1F1" height="48" rx="2.5" ry="2.5" style="stroke:#181818;stroke-width:0.5;" width="120.2998" x="11.95" y="241"/><ellipse cx="26.95" cy="257" fill="#ADD1B2" rx="11" ry="11" style="stroke:#181818;stroke-width:1;"/><path d="M29.9188,262.6406 Q29.3406,262.9375 28.7,263.0781 Q28.0594,263.2344 27.3563,263.2344 Q24.8563,263.2344 23.5281,261.5938 Q22.2156,259.9375 22.2156,256.8125 Q22.2156,253.6875 23.5281,252.0313 Q24.8563,250.375 27.3563,250.375 Q28.0594,250.375 28.7,250.5313 Q29.3563,250.6875 29.9188,250.9844 L29.9188,253.7031 Q29.2938,253.125 28.7,252.8594 Q28.1063,252.5781 27.4813,252.5781 Q26.1375,252.5781 25.45,253.6563 Q24.7625,254.7188 24.7625,256.8125 Q24.7625,258.9063 25.45,259.9844 Q26.1375,261.0469 27.4813,261.0469 Q28.1063,261.0469 28.7,260.7813 Q29.2938,260.5 29.9188,259.9219 L29.9188,262.6406 Z " fill="#000000"/><text fill="#000000" font-family="sans-serif" font-size="14" lengthAdjust="spacing" textLength="88.2998" x="40.95" y="261.8467">key_gen.cpp</text><line style="stroke:#181818;stroke-width:0.5;" x1="12.95" x2="131.2498" y1="273" y2="273"/><line style="stroke:#181818;stroke-width:0.5;" x1="12.95" x2="131.2498" y1="281" y2="281"/></g><!--class main_window--><g class="entity" data-qualified-name="main_window" data-source-line="14" id="ent0008"><rect fill="#F1F1F1" height="48" rx="2.5" ry="2.5" style="stroke:#181818;stroke-width:0.5;" width="157.0156" x="172.59" y="116"/><ellipse cx="187.59" cy="132" fill="#ADD1B2" rx="11" ry="11" style="stroke:#181818;stroke-width:1;"/><path d="M190.5588,137.6406 Q189.9806,137.9375 189.34,138.0781 Q188.6994,138.2344 187.9963,138.2344 Q185.4963,138.2344 184.1681,136.5938 Q182.8556,134.9375 182.8556,131.8125 Q182.8556,128.6875 184.1681,127.0313 Q185.4963,125.375 187.9963,125.375 Q188.6994,125.375 189.34,125.5313 Q189.9963,125.6875 190.5588,125.9844 L190.5588,128.7031 Q189.9338,128.125 189.34,127.8594 Q188.7463,127.5781 188.1213,127.5781 Q186.7775,127.5781 186.09,128.6563 Q185.4025,129.7188 185.4025,131.8125 Q185.4025,133.9063 186.09,134.9844 Q186.7775,136.0469 188.1213,136.0469 Q188.7463,136.0469 189.34,135.7813 Q189.9338,135.5 190.5588,134.9219 L190.5588,137.6406 Z " fill="#000000"/><text fill="#000000" font-family="sans-serif" font-size="14" lengthAdjust="spacing" textLength="125.0156" x="201.59" y="136.8467">main_window.cpp</text><line style="stroke:#181818;stroke-width:0.5;" x1="173.59" x2="328.6056" y1="148" y2="148"/><line style="stroke:#181818;stroke-width:0.5;" x1="173.59" x2="328.6056" y1="156" y2="156"/></g><!--link client_main to chat_core--><g class="link" data-entity-1="ent0002" data-entity-2="ent0004" data-link-type="dependency" data-source-line="17" id="lnk9"><path codeLine="17" d="M186.84,55.48 C162.33,73.32 133.6216,94.2198 109.1316,112.0398" fill="none" id="client_main-to-chat_core" style="stroke:#181818;stroke-width:1;"/><polygon fill="#181818" points="104.28,115.57,113.9108,113.5091,108.323,112.6282,109.2039,107.0403,104.28,115.57" style="stroke:#181818;stroke-width:1;"/></g><!--link chat_core to key_gen--><g class="link" data-entity-1="ent0004" data-entity-2="ent0007" data-link-type="dependency" data-source-line="18" id="lnk10"><path codeLine="18" d="M72.1,164.42 C72.1,186.31 72.1,212.8 72.1,234.66" fill="none" id="chat_core-to-key_gen" style="stroke:#181818;stroke-width:1;"/><polygon fill="#181818" points="72.1,240.66,76.1,231.66,72.1,235.66,68.1,231.66,72.1,240.66" style="stroke:#181818;stroke-width:1;"/></g><!--link client_main to main_window--><g class="link" data-entity-1="ent0002" data-entity-2="ent0008" data-link-type="dependency" data-source-line="19" id="lnk11"><path codeLine="19" d="M226.12,55.48 C231.45,73.32 237.0406,92.0016 242.3706,109.8216" fill="none" id="client_main-to-main_window" style="stroke:#181818;stroke-width:1;"/><polygon fill="#181818" points="244.09,115.57,245.3432,105.8012,242.6572,110.7797,237.6787,108.0937,244.09,115.57" style="stroke:#181818;stroke-width:1;"/></g><!--link server_main to client_handler--><g class="link" data-entity-1="ent0003" data-entity-2="ent0006" data-link-type="dependency" data-source-line="22" id="lnk12"><path codeLine="22" d="M439.36,55.48 C457.03,73.32 477.0065,93.4883 494.6665,111.3083" fill="none" id="server_main-to-client_handler" style="stroke:#181818;stroke-width:1;"/><polygon fill="#181818" points="498.89,115.57,495.396,106.3618,495.3704,112.0186,489.7136,111.993,498.89,115.57" style="stroke:#181818;stroke-width:1;"/></g><!--link server_main to msg_switch--><g class="link" data-entity-1="ent0003" data-entity-2="ent0005" data-link-type="dependency" data-source-line="23" id="lnk13"><path codeLine="23" d="M417.03,55.41 C418.19,81.82 420.48,126.06 424.1,164 C426.6,190.32 429.8128,214.4415 432.7328,234.6715" fill="none" id="server_main-to-msg_switch" style="stroke:#181818;stroke-width:1;"/><polygon fill="#181818" points="433.59,240.61,436.2632,231.1309,432.8757,235.6613,428.3453,232.2738,433.59,240.61" style="stroke:#181818;stroke-width:1;"/></g><!--link client_handler to msg_switch--><g class="link" data-entity-1="ent0006" data-entity-2="ent0005" data-link-type="extension" data-source-line="24" id="lnk14"><path codeLine="24" d="M505.91,164.42 C490.78,186.31 478.5649,203.993 463.4549,225.853" fill="none" id="client_handler-to-msg_switch" style="stroke:#181818;stroke-width:1;"/><polygon fill="none" points="453.22,240.66,468.3905,229.2646,458.5192,222.4414,453.22,240.66" style="stroke:#181818;stroke-width:1;"/><text fill="#000000" font-family="sans-serif" font-size="13" lengthAdjust="spacing" textLength="126.1724" x="485.1" y="207.0669">forwards messages</text></g><?plantuml-src PL0n3i8m3DppYgXBf_801YI444ACY3aAgMaZshIA0w4IZoUaQHFevhFFPz_bTFy2yJ3ysW0IqN14AXe9oh2MIqKvqYp1Az7tMQ0Xw2VeI4lmI2CvtTNSJAgkPABJC6fEA5LiiM9efH6rvqIOai8tDLTb0pfzCBJcuriSsXQCbeAUOAX01OKx3CmXlnhgUUTmEKxFE1_CIbLsTlmcuecTEuF-T5YBiHN59XecqVgt7quk-Cc1KVli0oLfpbxtn-rY75CZVr4LnJiTqpMzTTfoNJgpWCWhm0y0?></g></svg>