<svg xmlns="http://www.w3.org/2000/svg" xmlns:xlink="http://www.w3.org/1999/xlink" contentStyleType="text/css" data-diagram-type="CLASS" height="413px" preserveAspectRatio="none" style="width:493px;height:413px;background:#FFFFFF;" version="1.1" viewBox="0 0 493 413" width="493px" zoomAndPan="magnify"><?plantuml 1.2026.3beta6?><defs/><g><!--class client_main--><g class="entity" data-qualified-name="client_main" data-source-line="2" id="ent0002"><rect fill="#F1F1F1" height="48" rx="2.5" ry="2.5" style="stroke:#181818;stroke-width:0.5;" width="142.3525" x="24.55" y="7"/><ellipse cx="39.55" cy="23" fill="#ADD1B2" rx="11" ry="11" style="stroke:#181818;stroke-width:1;"/><path d="M42.5188,28.6406 Q41.9406,28.9375 41.3,29.0781 Q40.6594,29.2344 39.9563,29.2344 Q37.4563,29.2344 36.1281,27.5938 Q34.8156,25.9375 34.8156,22.8125 Q34.8156,19.6875 36.1281,18.0313 Q37.4563,16.375 39.9563,16.375 Q40.6594,16.375 41.3,16.5313 Q41.9563,16.6875 42.5188,16.9844 L42.5188,19.7031 Q41.8938,19.125 41.3,18.8594 Q40.7063,18.5781 40.0813,18.5781 Q38.7375,18.5781 38.05,19.6563 Q37.3625,20.7188 37.3625,22.8125 Q37.3625,24.9063 38.05,25.9844 Q38.7375,27.0469 40.0813,27.0469 Q40.7063,27.0469 41.3,26.7813 Q41.8938,26.5 42.5188,25.9219 L42.5188,28.6406 Z " fill="#000000"/><text fill="#000000" font-family="sans-serif" font-size="14" lengthAdjust="spacing" textLength="110.3525" x="53.55" y="27.8467">client_main.cpp</text><line style="stroke:#181818;stroke-width:0.5;" x1="25.55" x2="165.9025" y1="39" y2="39"/><line style="stroke:#181818;stroke-width:0.5;" x1="25.55" x2="165.9025" y1="47" y2="47"/></g><!--class server_main--><g class="entity" data-qualified-name="server_main" data-source-line="3" id="ent0003"><rect fill="#F1F1F1" height="48" rx="2.5" ry="2.5" style="stroke:#181818;stroke-width:0.5;" width="148.2178" x="316.62" y="7"/><ellipse cx="331.62" cy="23" fill="#ADD1B2" rx="11" ry="11" style="stroke:#181818;stroke-width:1;"/><path d="M334.5888,28.6406 Q334.0106,28.9375 333.37,29.0781 Q332.7294,29.2344 332.0263,29.2344 Q329.5263,29.2344 328.1981,27.5938 Q326.8856,25.9375 326.8856,22.8125 Q326.8856,19.6875 328.1981,18.0313 Q329.5263,16.375 332.0263,16.375 Q332.7294,16.375 333.37,16.5313 Q334.0263,16.6875 334.5888,16.9844 L334.5888,19.7031 Q333.9638,19.125 333.37,18.8594 Q332.7763,18.5781 332.1513,18.5781 Q330.8075,18.5781 330.12,19.6563 Q329.4325,20.7188 329.4325,22.8125 Q329.4325,24.9063 330.12,25.9844 Q330.8075,27.0469 332.1513,27.0469 Q332.7763,27.0469 333.37,26.7813 Q333.9638,26.5 334.5888,25.9219 L334.5888,28.6406 Z " fill="#000000"/><text fill="#000000" font-family="sans-serif" font-size="14" lengthAdjust="spacing" textLength="116.2178" x="345.62" y="27.8467">server_main.cpp</text><line style="stroke:#181818;stroke-width:0.5;" x1="317.62" x2="463.8378" y1="39" y2="39"/><line style="stroke:#181818;stroke-width:0.5;" x1="317.62" x2="463.8378" y1="47" y2="47"/></g><!--class client_endpoint--><g class="entity" data-qualified-name="client_endpoint" data-source-line="6" id="ent0004"><rect fill="#F1F1F1" height="48" rx="2.5" ry="2.5" style="stroke:#181818;stroke-width:0.5;" width="169.4502" x="7" y="350"/><ellipse cx="22" cy="366" fill="#ADD1B2" rx="11" ry="11" style="stroke:#181818;stroke-width:1;"/><path d="M24.9688,371.6406 Q24.3906,371.9375 23.75,372.0781 Q23.1094,372.2344 22.4063,372.2344 Q19.9063,372.2344 18.5781,370.5938 Q17.2656,368.9375 17.2656,365.8125 Q17.2656,362.6875 18.5781,361.0313 Q19.9063,359.375 22.4063,359.375 Q23.1094,359.375 23.75,359.5313 Q24.4063,359.6875 24.9688,359.9844 L24.9688,362.7031 Q24.3438,362.125 23.75,361.8594 Q23.1563,361.5781 22.5313,361.5781 Q21.1875,361.5781 20.5,362.6563 Q19.8125,363.7188 19.8125,365.8125 Q19.8125,367.9063 20.5,368.9844 Q21.1875,370.0469 22.5313,370.0469 Q23.1563,370.0469 23.75,369.7813 Q24.3438,369.5 24.9688,368.9219 L24.9688,371.6406 Z " fill="#000000"/><text fill="#000000" font-family="sans-serif" font-size="14" lengthAdjust="spacing" textLength="137.4502" x="36" y="370.8467">client_endpoint.cpp</text><line style="stroke:#181818;stroke-width:0.5;" x1="8" x2="175.4502" y1="382" y2="382"/><line style="stroke:#181818;stroke-width:0.5;" x1="8" x2="175.4502" y1="390" y2="390"/></g><!--class server_endpoint--><g class="entity" data-qualified-name="server_endpoint" data-source-line="7" id="ent0005"><rect fill="#F1F1F1" height="48" rx="2.5" ry="2.5" style="stroke:#181818;stroke-width:0.5;" width="175.3154" x="303.07" y="116"/><ellipse cx="318.07" cy="132" fill="#ADD1B2" rx="11" ry="11" style="stroke:#181818;stroke-width:1;"/><path d="M321.0388,137.6406 Q320.4606,137.9375 319.82,138.0781 Q319.1794,138.2344 318.4763,138.2344 Q315.9763,138.2344 314.6481,136.5938 Q313.3356,134.9375 313.3356,131.8125 Q313.3356,128.6875 314.6481,127.0313 Q315.9763,125.375 318.4763,125.375 Q319.1794,125.375 319.82,125.5313 Q320.4763,125.6875 321.0388,125.9844 L321.0388,128.7031 Q320.4138,128.125 319.82,127.8594 Q319.2263,127.5781 318.6013,127.5781 Q317.2575,127.5781 316.57,128.6563 Q315.8825,129.7188 315.8825,131.8125 Q315.8825,133.9063 316.57,134.9844 Q317.2575,136.0469 318.6013,136.0469 Q319.2263,136.0469 319.82,135.7813 Q320.4138,135.5 321.0388,134.9219 L321.0388,137.6406 Z " fill="#000000"/><text fill="#000000" font-family="sans-serif" font-size="14" lengthAdjust="spacing" textLength="143.3154" x="332.07" y="136.8467">server_endpoint.cpp</text><line style="stroke:#181818;stroke-width:0.5;" x1="304.07" x2="477.3854" y1="148" y2="148"/><line style="stroke:#181818;stroke-width:0.5;" x1="304.07" x2="477.3854" y1="156" y2="156"/></g><!--class main_window--><g class="entity" data-qualified-name="main_window" data-source-line="10" id="ent0006"><rect fill="#F1F1F1" height="48" rx="2.5" ry="2.5" style="stroke:#181818;stroke-width:0.5;" width="157.0156" x="13.22" y="241"/><ellipse cx="28.22" cy="257" fill="#ADD1B2" rx="11" ry="11" style="stroke:#181818;stroke-width:1;"/><path d="M31.1888,262.6406 Q30.6106,262.9375 29.97,263.0781 Q29.3294,263.2344 28.6263,263.2344 Q26.1263,263.2344 24.7981,261.5938 Q23.4856,259.9375 23.4856,256.8125 Q23.4856,253.6875 24.7981,252.0313 Q26.1263,250.375 28.6263,250.375 Q29.3294,250.375 29.97,250.5313 Q30.6263,250.6875 31.1888,250.9844 L31.1888,253.7031 Q30.5638,253.125 29.97,252.8594 Q29.3763,252.5781 28.7513,252.5781 Q27.4075,252.5781 26.72,253.6563 Q26.0325,254.7188 26.0325,256.8125 Q26.0325,258.9063 26.72,259.9844 Q27.4075,261.0469 28.7513,261.0469 Q29.3763,261.0469 29.97,260.7813 Q30.5638,260.5 31.1888,259.9219 L31.1888,262.6406 Z " fill="#000000"/><text fill="#000000" font-family="sans-serif" font-size="14" lengthAdjust="spacing" textLength="125.0156" x="42.22" y="261.8467">main_window.cpp</text><line style="stroke:#181818;stroke-width:0.5;" x1="14.22" x2="169.2356" y1="273" y2="273"/><line style="stroke:#181818;stroke-width:0.5;" x1="14.22" x2="169.2356" y1="281" y2="281"/></g><!--class startup_form--><g class="entity" data-qualified-name="startup_form" data-source-line="11" id="ent0007"><rect fill="#F1F1F1" height="48" rx="2.5" ry="2.5" style="stroke:#181818;stroke-width:0.5;" width="152.1758" x="115.64" y="116"/><ellipse cx="130.64" cy="132" fill="#ADD1B2" rx="11" ry="11" style="stroke:#181818;stroke-width:1;"/><path d="M133.6088,137.6406 Q133.0306,137.9375 132.39,138.0781 Q131.7494,138.2344 131.0463,138.2344 Q128.5463,138.2344 127.2181,136.5938 Q125.9056,134.9375 125.9056,131.8125 Q125.9056,128.6875 127.2181,127.0313 Q128.5463,125.375 131.0463,125.375 Q131.7494,125.375 132.39,125.5313 Q133.0463,125.6875 133.6088,125.9844 L133.6088,128.7031 Q132.9838,128.125 132.39,127.8594 Q131.7963,127.5781 131.1713,127.5781 Q129.8275,127.5781 129.14,128.6563 Q128.4525,129.7188 128.4525,131.8125 Q128.4525,133.9063 129.14,134.9844 Q129.8275,136.0469 131.1713,136.0469 Q131.7963,136.0469 132.39,135.7813 Q132.9838,135.5 133.6088,134.9219 L133.6088,137.6406 Z " fill="#000000"/><text fill="#000000" font-family="sans-serif" font-size="14" lengthAdjust="spacing" textLength="120.1758" x="144.64" y="136.8467">startup_form.cpp</text><line style="stroke:#181818;stroke-width:0.5;" x1="116.64" x2="266.8158" y1="148" y2="148"/><line style="stroke:#181818;stroke-width:0.5;" x1="116.64" x2="266.8158" y1="156" y2="156"/></g><!--link client_main to main_window--><g class="link" data-entity-1="ent0002" data-entity-2="ent0006" data-link-type="dependency" data-source-line="14" id="lnk8"><path codeLine="14" d="M95.33,55.09 C94.56,99.45 93.0037,190.1009 92.2337,234.6609" fill="none" id="client_main-to-main_window" style="stroke:#181818;stroke-width:1;"/><polygon fill="#181818" points="92.13,240.66,96.2849,231.7305,92.2164,235.6607,88.2861,231.5922,92.13,240.66" style="stroke:#181818;stroke-width:1;"/></g><!--link client_main to startup_form--><g class="link" data-entity-1="ent0002" data-entity-2="ent0007" data-link-type="dependency" data-source-line="15" id="lnk9"><path codeLine="15" d="M116.79,55.48 C132.8,73.32 150.7015,93.2855 166.7015,111.1055" fill="none" id="client_main-to-startup_form" style="stroke:#181818;stroke-width:1;"/><polygon fill="#181818" points="170.71,115.57,167.6735,106.2009,167.3696,111.8496,161.7209,111.5456,170.71,115.57" style="stroke:#181818;stroke-width:1;"/></g><!--link startup_form to main_window--><g class="link" data-entity-1="ent0007" data-entity-2="ent0006" data-link-type="extension" data-source-line="16" id="lnk10"><path codeLine="16" d="M172.68,164.42 C154.89,186.31 139.824,204.8327 122.054,226.6927" fill="none" id="startup_form-to-main_window" style="stroke:#181818;stroke-width:1;"/><polygon fill="none" points="110.7,240.66,126.7098,230.4774,117.3983,222.908,110.7,240.66" style="stroke:#181818;stroke-width:1;"/><text fill="#000000" font-family="sans-serif" font-size="13" lengthAdjust="spacing" textLength="49.7974" x="148.73" y="207.0669">invokes</text></g><!--link main_window to client_endpoint--><g class="link" data-entity-1="ent0006" data-entity-2="ent0004" data-link-type="dependency" data-source-line="17" id="lnk11"><path codeLine="17" d="M91.73,289.48 C91.73,307.32 91.73,325.75 91.73,343.57" fill="none" id="main_window-to-client_endpoint" style="stroke:#181818;stroke-width:1;"/><polygon fill="#181818" points="91.73,349.57,95.73,340.57,91.73,344.57,87.73,340.57,91.73,349.57" style="stroke:#181818;stroke-width:1;"/></g><!--link server_main to server_endpoint--><g class="link" data-entity-1="ent0003" data-entity-2="ent0005" data-link-type="dependency" data-source-line="20" id="lnk12"><path codeLine="20" d="M390.73,55.48 C390.73,73.32 390.73,91.75 390.73,109.57" fill="none" id="server_main-to-server_endpoint" style="stroke:#181818;stroke-width:1;"/><polygon fill="#181818" points="390.73,115.57,394.73,106.57,390.73,110.57,386.73,106.57,390.73,115.57" style="stroke:#181818;stroke-width:1;"/></g><?plantuml-src RP0n3y8W48LtViMbIoVy0GuknXXduznGYf58WG1j7Vpnjj3QephUktVVkxmIJY_1ky1g9JpXYdaFN4cXGzKogO5vAD2yuzOMiyqBrmktsj2SRAI4uuE5d2fqOutK0PCNxGyzis-qRyhvTfclfl1gaBenGxn0SmOFp8NELdVZsaH6me8jn_VZVpD_BONI0qxwsM4QoR8eVMUdi0UfU_CSkyVg1DbqanwwnWO8hZu6viLy0000?></g></svg>