<svg xmlns="http://www.w3.org/2000/svg" xmlns:xlink="http://www.w3.org/1999/xlink" contentStyleType="text/css" data-diagram-type="CLASS" height="304px" preserveAspectRatio="none" style="width:660px;height:304px;background:#FFFFFF;" version="1.1" viewBox="0 0 660 304" width="660px" zoomAndPan="magnify"><?plantuml 1.2026.3beta6?><defs/><g><!--class client_main--><g class="entity" data-qualified-name="client_main" data-source-line="2" id="ent0002"><rect fill="#F1F1F1" height="48" rx="2.5" ry="2.5" style="stroke:#181818;stroke-width:0.5;" width="142.3525" x="158.55" y="7"/><ellipse cx="173.55" cy="23" fill="#ADD1B2" rx="11" ry="11" style="stroke:#181818;stroke-width:1;"/><path d="M176.5188,28.6406 Q175.9406,28.9375 175.3,29.0781 Q174.6594,29.2344 173.9563,29.2344 Q171.4563,29.2344 170.1281,27.5938 Q168.8156,25.9375 168.8156,22.8125 Q168.8156,19.6875 170.1281,18.0313 Q171.4563,16.375 173.9563,16.375 Q174.6594,16.375 175.3,16.5313 Q175.9563,16.6875 176.5188,16.9844 L176.5188,19.7031 Q175.8938,19.125 175.3,18.8594 Q174.7063,18.5781 174.0813,18.5781 Q172.7375,18.5781 172.05,19.6563 Q171.3625,20.7188 171.3625,22.8125 Q171.3625,24.9063 172.05,25.9844 Q172.7375,27.0469 174.0813,27.0469 Q174.7063,27.0469 175.3,26.7813 Q175.8938,26.5 176.5188,25.9219 L176.5188,28.6406 Z " fill="#000000"/><text fill="#000000" font-family="sans-serif" font-size="14" lengthAdjust="spacing" textLength="110.3525" x="187.55" y="27.8467">client_main.cpp</text><line style="stroke:#181818;stroke-width:0.5;" x1="159.55" x2="299.9025" y1="39" y2="39"/><line style="stroke:#181818;stroke-width:0.5;" x1="159.55" x2="299.9025" y1="47" y2="47"/></g><!--class server_main--><g class="entity" data-qualified-name="server_main" data-source-line="3" id="ent0003"><rect fill="#F1F1F1" height="48" rx="2.5" ry="2.5" style="stroke:#181818;stroke-width:0.5;" width="148.2178" x="483.62" y="7"/><ellipse cx="498.62" cy="23" fill="#ADD1B2" rx="11" ry="11" style="stroke:#181818;stroke-width:1;"/><path d="M501.5888,28.6406 Q501.0106,28.9375 500.37,29.0781 Q499.7294,29.2344 499.0263,29.2344 Q496.5263,29.2344 495.1981,27.5938 Q493.8856,25.9375 493.8856,22.8125 Q493.8856,19.6875 495.1981,18.0313 Q496.5263,16.375 499.0263,16.375 Q499.7294,16.375 500.37,16.5313 Q501.0263,16.6875 501.5888,16.9844 L501.5888,19.7031 Q500.9638,19.125 500.37,18.8594 Q499.7763,18.5781 499.1513,18.5781 Q497.8075,18.5781 497.12,19.6563 Q496.4325,20.7188 496.4325,22.8125 Q496.4325,24.9063 497.12,25.9844 Q497.8075,27.0469 499.1513,27.0469 Q499.7763,27.0469 500.37,26.7813 Q500.9638,26.5 501.5888,25.9219 L501.5888,28.6406 Z " fill="#000000"/><text fill="#000000" font-family="sans-serif" font-size="14" lengthAdjust="spacing" textLength="116.2178" x="512.62" y="27.8467">server_main.cpp</text><line style="stroke:#181818;stroke-width:0.5;" x1="484.62" x2="630.8378" y1="39" y2="39"/><line style="stroke:#181818;stroke-width:0.5;" x1="484.62" x2="630.8378" y1="47" y2="47"/></g><!--class client_endpoint--><g class="entity" data-qualified-name="client_endpoint" data-source-line="6" id="ent0004"><rect fill="#F1F1F1" height="48" rx="2.5" ry="2.5" style="stroke:#181818;stroke-width:0.5;" width="169.4502" x="7" y="116"/><ellipse cx="22" cy="132" fill="#ADD1B2" rx="11" ry="11" style="stroke:#181818;stroke-width:1;"/><path d="M24.9688,137.6406 Q24.3906,137.9375 23.75,138.0781 Q23.1094,138.2344 22.4063,138.2344 Q19.9063,138.2344 18.5781,136.5938 Q17.2656,134.9375 17.2656,131.8125 Q17.2656,128.6875 18.5781,127.0313 Q19.9063,125.375 22.4063,125.375 Q23.1094,125.375 23.75,125.5313 Q24.4063,125.6875 24.9688,125.9844 L24.9688,128.7031 Q24.3438,128.125 23.75,127.8594 Q23.1563,127.5781 22.5313,127.5781 Q21.1875,127.5781 20.5,128.6563 Q19.8125,129.7188 19.8125,131.8125 Q19.8125,133.9063 20.5,134.9844 Q21.1875,136.0469 22.5313,136.0469 Q23.1563,136.0469 23.75,135.7813 Q24.3438,135.5 24.9688,134.9219 L24.9688,137.6406 Z " fill="#000000"/><text fill="#000000" font-family="sans-serif" font-size="14" lengthAdjust="spacing" textLength="137.4502" x="36" y="136.8467">client_endpoint.cpp</text><line style="stroke:#181818;stroke-width:0.5;" x1="8" x2="175.4502" y1="148" y2="148"/><line style="stroke:#181818;stroke-width:0.5;" x1="8" x2="175.4502" y1="156" y2="156"/></g><!--class server_endpoint--><g class="entity" data-qualified-name="server_endpoint" data-source-line="7" id="ent0005"><rect fill="#F1F1F1" height="48" rx="2.5" ry="2.5" style="stroke:#181818;stroke-width:0.5;" width="175.3154" x="470.07" y="116"/><ellipse cx="485.07" cy="132" fill="#ADD1B2" rx="11" ry="11" style="stroke:#181818;stroke-width:1;"/><path d="M488.0388,137.6406 Q487.4606,137.9375 486.82,138.0781 Q486.1794,138.2344 485.4763,138.2344 Q482.9763,138.2344 481.6481,136.5938 Q480.3356,134.9375 480.3356,131.8125 Q480.3356,128.6875 481.6481,127.0313 Q482.9763,125.375 485.4763,125.375 Q486.1794,125.375 486.82,125.5313 Q487.4763,125.6875 488.0388,125.9844 L488.0388,128.7031 Q487.4138,128.125 486.82,127.8594 Q486.2263,127.5781 485.6013,127.5781 Q484.2575,127.5781 483.57,128.6563 Q482.8825,129.7188 482.8825,131.8125 Q482.8825,133.9063 483.57,134.9844 Q484.2575,136.0469 485.6013,136.0469 Q486.2263,136.0469 486.82,135.7813 Q487.4138,135.5 488.0388,134.9219 L488.0388,137.6406 Z " fill="#000000"/><text fill="#000000" font-family="sans-serif" font-size="14" lengthAdjust="spacing" textLength="143.3154" x="499.07" y="136.8467">server_endpoint.cpp</text><line style="stroke:#181818;stroke-width:0.5;" x1="471.07" x2="644.3854" y1="148" y2="148"/><line style="stroke:#181818;stroke-width:0.5;" x1="471.07" x2="644.3854" y1="156" y2="156"/></g><!--class main_window--><g class="entity" data-qualified-name="main_window" data-source-line="10" id="ent0006"><rect fill="#F1F1F1" height="48" rx="2.5" ry="2.5" style="stroke:#181818;stroke-width:0.5;" width="157.0156" x="180.22" y="241"/><ellipse cx="195.22" cy="257" fill="#ADD1B2" rx="11" ry="11" style="stroke:#181818;stroke-width:1;"/><path d="M198.1888,262.6406 Q197.6106,262.9375 196.97,263.0781 Q196.3294,263.2344 195.6263,263.2344 Q193.1263,263.2344 191.7981,261.5938 Q190.4856,259.9375 190.4856,256.8125 Q190.4856,253.6875 191.7981,252.0313 Q193.1263,250.375 195.6263,250.375 Q196.3294,250.375 196.97,250.5313 Q197.6263,250.6875 198.1888,250.9844 L198.1888,253.7031 Q197.5638,253.125 196.97,252.8594 Q196.3763,252.5781 195.7513,252.5781 Q194.4075,252.5781 193.72,253.6563 Q193.0325,254.7188 193.0325,256.8125 Q193.0325,258.9063 193.72,259.9844 Q194.4075,261.0469 195.7513,261.0469 Q196.3763,261.0469 196.97,260.7813 Q197.5638,260.5 198.1888,259.9219 L198.1888,262.6406 Z " fill="#000000"/><text fill="#000000" font-family="sans-serif" font-size="14" lengthAdjust="spacing" textLength="125.0156" x="209.22" y="261.8467">main_window.cpp</text><line style="stroke:#181818;stroke-width:0.5;" x1="181.22" x2="336.2356" y1="273" y2="273"/><line style="stroke:#181818;stroke-width:0.5;" x1="181.22" x2="336.2356" y1="281" y2="281"/></g><!--class startup_form--><g class="entity" data-qualified-name="startup_form" data-source-line="11" id="ent0007"><rect fill="#F1F1F1" height="48" rx="2.5" ry="2.5" style="stroke:#181818;stroke-width:0.5;" width="152.1758" x="282.64" y="116"/><ellipse cx="297.64" cy="132" fill="#ADD1B2" rx="11" ry="11" style="stroke:#181818;stroke-width:1;"/><path d="M300.6088,137.6406 Q300.0306,137.9375 299.39,138.0781 Q298.7494,138.2344 298.0463,138.2344 Q295.5463,138.2344 294.2181,136.5938 Q292.9056,134.9375 292.9056,131.8125 Q292.9056,128.6875 294.2181,127.0313 Q295.5463,125.375 298.0463,125.375 Q298.7494,125.375 299.39,125.5313 Q300.0463,125.6875 300.6088,125.9844 L300.6088,128.7031 Q299.9838,128.125 299.39,127.8594 Q298.7963,127.5781 298.1713,127.5781 Q296.8275,127.5781 296.14,128.6563 Q295.4525,129.7188 295.4525,131.8125 Q295.4525,133.9063 296.14,134.9844 Q296.8275,136.0469 298.1713,136.0469 Q298.7963,136.0469 299.39,135.7813 Q299.9838,135.5 300.6088,134.9219 L300.6088,137.6406 Z " fill="#000000"/><text fill="#000000" font-family="sans-serif" font-size="14" lengthAdjust="spacing" textLength="120.1758" x="311.64" y="136.8467">startup_form.cpp</text><line style="stroke:#181818;stroke-width:0.5;" x1="283.64" x2="433.8158" y1="148" y2="148"/><line style="stroke:#181818;stroke-width:0.5;" x1="283.64" x2="433.8158" y1="156" y2="156"/></g><!--link client_main to client_endpoint--><g class="link" data-entity-1="ent0002" data-entity-2="ent0004" data-link-type="dependency" data-source-line="14" id="lnk8"><path codeLine="14" d="M199.44,55.48 C176.43,73.32 149.6722,94.0742 126.6822,111.8942" fill="none" id="client_main-to-client_endpoint" style="stroke:#181818;stroke-width:1;"/><polygon fill="#181818" points="121.94,115.57,131.5038,113.2178,125.8918,112.5068,126.6028,106.8948,121.94,115.57" style="stroke:#181818;stroke-width:1;"/></g><!--link client_main to main_window--><g class="link" data-entity-1="ent0002" data-entity-2="ent0006" data-link-type="dependency" data-source-line="15" id="lnk9"><path codeLine="15" d="M232.61,55.09 C238.16,99.45 249.4958,190.1463 255.0658,234.7063" fill="none" id="client_main-to-main_window" style="stroke:#181818;stroke-width:1;"/><polygon fill="#181818" points="255.81,240.66,258.6628,231.2334,255.1898,235.6986,250.7246,232.2256,255.81,240.66" style="stroke:#181818;stroke-width:1;"/></g><!--link client_main to startup_form--><g class="link" data-entity-1="ent0002" data-entity-2="ent0007" data-link-type="dependency" data-source-line="16" id="lnk10"><path codeLine="16" d="M258.03,55.48 C279.54,73.32 304.3713,93.9201 325.8613,111.7401" fill="none" id="client_main-to-startup_form" style="stroke:#181818;stroke-width:1;"/><polygon fill="#181818" points="330.48,115.57,326.1053,106.7461,326.6311,112.3784,320.9988,112.9043,330.48,115.57" style="stroke:#181818;stroke-width:1;"/></g><!--link startup_form to main_window--><g class="link" data-entity-1="ent0007" data-entity-2="ent0006" data-link-type="extension" data-source-line="17" id="lnk11"><path codeLine="17" d="M339.68,164.42 C321.89,186.31 306.824,204.8327 289.054,226.6927" fill="none" id="startup_form-to-main_window" style="stroke:#181818;stroke-width:1;"/><polygon fill="none" points="277.7,240.66,293.7098,230.4774,284.3983,222.908,277.7,240.66" style="stroke:#181818;stroke-width:1;"/><text fill="#000000" font-family="sans-serif" font-size="13" lengthAdjust="spacing" textLength="49.7974" x="315.73" y="207.0669">invokes</text></g><!--link server_main to server_endpoint--><g class="link" data-entity-1="ent0003" data-entity-2="ent0005" data-link-type="dependency" data-source-line="20" id="lnk12"><path codeLine="20" d="M557.73,55.48 C557.73,73.32 557.73,91.75 557.73,109.57" fill="none" id="server_main-to-server_endpoint" style="stroke:#181818;stroke-width:1;"/><polygon fill="#181818" points="557.73,115.57,561.73,106.57,557.73,110.57,553.73,106.57,557.73,115.57" style="stroke:#181818;stroke-width:1;"/></g><?plantuml-src RP6n3i8W48PtdkBIfHC-W8EBCSRPE1DACH8f4A2jWmzlfQqzMiUx--_xVuuIJYyfsiWhBGCHceS0GYjf8ckuCi035AZU2UUAIHQaxwHVPAWUPQI4uuF7d2fDxQmo4PFdtXzw9b_rVYxdssNQ-fgpNfdQzca3rHaySXzRn-xMDoCPDMPiESHF-IR-SXHA3-ldRER8UJF3RYJBGkaxMuKzADFPv_0tAT0rNO3WqoTWVfWF?></g></svg>