<svg xmlns="http://www.w3.org/2000/svg" xmlns:xlink="http://www.w3.org/1999/xlink" contentStyleType="text/css" data-diagram-type="CLASS" height="286px" preserveAspectRatio="none" style="width:781px;height:286px;background:#FFFFFF;" version="1.1" viewBox="0 0 781 286" width="781px" zoomAndPan="magnify"><?plantuml 1.2026.3beta6?><defs/><g><!--class client_main--><g class="entity" data-qualified-name="client_main" data-source-line="2" id="ent0002"><rect fill="#F1F1F1" height="48" rx="2.5" ry="2.5" style="stroke:#181818;stroke-width:0.5;" width="142.3525" x="218.55" y="7"/><ellipse cx="233.55" cy="23" fill="#ADD1B2" rx="11" ry="11" style="stroke:#181818;stroke-width:1;"/><path d="M236.5188,28.6406 Q235.9406,28.9375 235.3,29.0781 Q234.6594,29.2344 233.9563,29.2344 Q231.4563,29.2344 230.1281,27.5938 Q228.8156,25.9375 228.8156,22.8125 Q228.8156,19.6875 230.1281,18.0313 Q231.4563,16.375 233.9563,16.375 Q234.6594,16.375 235.3,16.5313 Q235.9563,16.6875 236.5188,16.9844 L236.5188,19.7031 Q235.8938,19.125 235.3,18.8594 Q234.7063,18.5781 234.0813,18.5781 Q232.7375,18.5781 232.05,19.6563 Q231.3625,20.7188 231.3625,22.8125 Q231.3625,24.9063 232.05,25.9844 Q232.7375,27.0469 234.0813,27.0469 Q234.7063,27.0469 235.3,26.7813 Q235.8938,26.5 236.5188,25.9219 L236.5188,28.6406 Z " fill="#000000"/><text fill="#000000" font-family="sans-serif" font-size="14" lengthAdjust="spacing" textLength="110.3525" x="247.55" y="27.8467">client_main.cpp</text><line style="stroke:#181818;stroke-width:0.5;" x1="219.55" x2="359.9025" y1="39" y2="39"/><line style="stroke:#181818;stroke-width:0.5;" x1="219.55" x2="359.9025" y1="47" y2="47"/></g><!--class server_main--><g class="entity" data-qualified-name="server_main" data-source-line="3" id="ent0003"><rect fill="#F1F1F1" height="48" rx="2.5" ry="2.5" style="stroke:#181818;stroke-width:0.5;" width="148.2178" x="604.62" y="7"/><ellipse cx="619.62" cy="23" fill="#ADD1B2" rx="11" ry="11" style="stroke:#181818;stroke-width:1;"/><path d="M622.5888,28.6406 Q622.0106,28.9375 621.37,29.0781 Q620.7294,29.2344 620.0263,29.2344 Q617.5263,29.2344 616.1981,27.5938 Q614.8856,25.9375 614.8856,22.8125 Q614.8856,19.6875 616.1981,18.0313 Q617.5263,16.375 620.0263,16.375 Q620.7294,16.375 621.37,16.5313 Q622.0263,16.6875 622.5888,16.9844 L622.5888,19.7031 Q621.9638,19.125 621.37,18.8594 Q620.7763,18.5781 620.1513,18.5781 Q618.8075,18.5781 618.12,19.6563 Q617.4325,20.7188 617.4325,22.8125 Q617.4325,24.9063 618.12,25.9844 Q618.8075,27.0469 620.1513,27.0469 Q620.7763,27.0469 621.37,26.7813 Q621.9638,26.5 622.5888,25.9219 L622.5888,28.6406 Z " fill="#000000"/><text fill="#000000" font-family="sans-serif" font-size="14" lengthAdjust="spacing" textLength="116.2178" x="633.62" y="27.8467">server_main.cpp</text><line style="stroke:#181818;stroke-width:0.5;" x1="605.62" x2="751.8378" y1="39" y2="39"/><line style="stroke:#181818;stroke-width:0.5;" x1="605.62" x2="751.8378" y1="47" y2="47"/></g><!--class client_endpoint--><g class="entity" data-qualified-name="client_endpoint" data-source-line="6" id="ent0004"><rect fill="#F1F1F1" height="48" rx="2.5" ry="2.5" style="stroke:#181818;stroke-width:0.5;" width="169.4502" x="7" y="115"/><ellipse cx="22" cy="131" fill="#ADD1B2" rx="11" ry="11" style="stroke:#181818;stroke-width:1;"/><path d="M24.9688,136.6406 Q24.3906,136.9375 23.75,137.0781 Q23.1094,137.2344 22.4063,137.2344 Q19.9063,137.2344 18.5781,135.5938 Q17.2656,133.9375 17.2656,130.8125 Q17.2656,127.6875 18.5781,126.0313 Q19.9063,124.375 22.4063,124.375 Q23.1094,124.375 23.75,124.5313 Q24.4063,124.6875 24.9688,124.9844 L24.9688,127.7031 Q24.3438,127.125 23.75,126.8594 Q23.1563,126.5781 22.5313,126.5781 Q21.1875,126.5781 20.5,127.6563 Q19.8125,128.7188 19.8125,130.8125 Q19.8125,132.9063 20.5,133.9844 Q21.1875,135.0469 22.5313,135.0469 Q23.1563,135.0469 23.75,134.7813 Q24.3438,134.5 24.9688,133.9219 L24.9688,136.6406 Z " fill="#000000"/><text fill="#000000" font-family="sans-serif" font-size="14" lengthAdjust="spacing" textLength="137.4502" x="36" y="135.8467">client_endpoint.cpp</text><line style="stroke:#181818;stroke-width:0.5;" x1="8" x2="175.4502" y1="147" y2="147"/><line style="stroke:#181818;stroke-width:0.5;" x1="8" x2="175.4502" y1="155" y2="155"/></g><!--class server_endpoint--><g class="entity" data-qualified-name="server_endpoint" data-source-line="7" id="ent0005"><rect fill="#F1F1F1" height="48" rx="2.5" ry="2.5" style="stroke:#181818;stroke-width:0.5;" width="175.3154" x="591.07" y="115"/><ellipse cx="606.07" cy="131" fill="#ADD1B2" rx="11" ry="11" style="stroke:#181818;stroke-width:1;"/><path d="M609.0388,136.6406 Q608.4606,136.9375 607.82,137.0781 Q607.1794,137.2344 606.4763,137.2344 Q603.9763,137.2344 602.6481,135.5938 Q601.3356,133.9375 601.3356,130.8125 Q601.3356,127.6875 602.6481,126.0313 Q603.9763,124.375 606.4763,124.375 Q607.1794,124.375 607.82,124.5313 Q608.4763,124.6875 609.0388,124.9844 L609.0388,127.7031 Q608.4138,127.125 607.82,126.8594 Q607.2263,126.5781 606.6013,126.5781 Q605.2575,126.5781 604.57,127.6563 Q603.8825,128.7188 603.8825,130.8125 Q603.8825,132.9063 604.57,133.9844 Q605.2575,135.0469 606.6013,135.0469 Q607.2263,135.0469 607.82,134.7813 Q608.4138,134.5 609.0388,133.9219 L609.0388,136.6406 Z " fill="#000000"/><text fill="#000000" font-family="sans-serif" font-size="14" lengthAdjust="spacing" textLength="143.3154" x="620.07" y="135.8467">server_endpoint.cpp</text><line style="stroke:#181818;stroke-width:0.5;" x1="592.07" x2="765.3854" y1="147" y2="147"/><line style="stroke:#181818;stroke-width:0.5;" x1="592.07" x2="765.3854" y1="155" y2="155"/></g><!--class key_gen--><g class="entity" data-qualified-name="key_gen" data-source-line="10" id="ent0006"><rect fill="#F1F1F1" height="48" rx="2.5" ry="2.5" style="stroke:#181818;stroke-width:0.5;" width="120.2998" x="31.58" y="223"/><ellipse cx="46.58" cy="239" fill="#ADD1B2" rx="11" ry="11" style="stroke:#181818;stroke-width:1;"/><path d="M49.5488,244.6406 Q48.9706,244.9375 48.33,245.0781 Q47.6894,245.2344 46.9863,245.2344 Q44.4863,245.2344 43.1581,243.5938 Q41.8456,241.9375 41.8456,238.8125 Q41.8456,235.6875 43.1581,234.0313 Q44.4863,232.375 46.9863,232.375 Q47.6894,232.375 48.33,232.5313 Q48.9863,232.6875 49.5488,232.9844 L49.5488,235.7031 Q48.9238,235.125 48.33,234.8594 Q47.7363,234.5781 47.1113,234.5781 Q45.7675,234.5781 45.08,235.6563 Q44.3925,236.7188 44.3925,238.8125 Q44.3925,240.9063 45.08,241.9844 Q45.7675,243.0469 47.1113,243.0469 Q47.7363,243.0469 48.33,242.7813 Q48.9238,242.5 49.5488,241.9219 L49.5488,244.6406 Z " fill="#000000"/><text fill="#000000" font-family="sans-serif" font-size="14" lengthAdjust="spacing" textLength="88.2998" x="60.58" y="243.8467">key_gen.cpp</text><line style="stroke:#181818;stroke-width:0.5;" x1="32.58" x2="150.8798" y1="255" y2="255"/><line style="stroke:#181818;stroke-width:0.5;" x1="32.58" x2="150.8798" y1="263" y2="263"/></g><!--class main_window--><g class="entity" data-qualified-name="main_window" data-source-line="13" id="ent0007"><rect fill="#F1F1F1" height="48" rx="2.5" ry="2.5" style="stroke:#181818;stroke-width:0.5;" width="157.0156" x="211.22" y="115"/><ellipse cx="226.22" cy="131" fill="#ADD1B2" rx="11" ry="11" style="stroke:#181818;stroke-width:1;"/><path d="M229.1888,136.6406 Q228.6106,136.9375 227.97,137.0781 Q227.3294,137.2344 226.6263,137.2344 Q224.1263,137.2344 222.7981,135.5938 Q221.4856,133.9375 221.4856,130.8125 Q221.4856,127.6875 222.7981,126.0313 Q224.1263,124.375 226.6263,124.375 Q227.3294,124.375 227.97,124.5313 Q228.6263,124.6875 229.1888,124.9844 L229.1888,127.7031 Q228.5638,127.125 227.97,126.8594 Q227.3763,126.5781 226.7513,126.5781 Q225.4075,126.5781 224.72,127.6563 Q224.0325,128.7188 224.0325,130.8125 Q224.0325,132.9063 224.72,133.9844 Q225.4075,135.0469 226.7513,135.0469 Q227.3763,135.0469 227.97,134.7813 Q228.5638,134.5 229.1888,133.9219 L229.1888,136.6406 Z " fill="#000000"/><text fill="#000000" font-family="sans-serif" font-size="14" lengthAdjust="spacing" textLength="125.0156" x="240.22" y="135.8467">main_window.cpp</text><line style="stroke:#181818;stroke-width:0.5;" x1="212.22" x2="367.2356" y1="147" y2="147"/><line style="stroke:#181818;stroke-width:0.5;" x1="212.22" x2="367.2356" y1="155" y2="155"/></g><!--class startup_form--><g class="entity" data-qualified-name="startup_form" data-source-line="14" id="ent0008"><rect fill="#F1F1F1" height="48" rx="2.5" ry="2.5" style="stroke:#181818;stroke-width:0.5;" width="152.1758" x="403.64" y="115"/><ellipse cx="418.64" cy="131" fill="#ADD1B2" rx="11" ry="11" style="stroke:#181818;stroke-width:1;"/><path d="M421.6088,136.6406 Q421.0306,136.9375 420.39,137.0781 Q419.7494,137.2344 419.0463,137.2344 Q416.5463,137.2344 415.2181,135.5938 Q413.9056,133.9375 413.9056,130.8125 Q413.9056,127.6875 415.2181,126.0313 Q416.5463,124.375 419.0463,124.375 Q419.7494,124.375 420.39,124.5313 Q421.0463,124.6875 421.6088,124.9844 L421.6088,127.7031 Q420.9838,127.125 420.39,126.8594 Q419.7963,126.5781 419.1713,126.5781 Q417.8275,126.5781 417.14,127.6563 Q416.4525,128.7188 416.4525,130.8125 Q416.4525,132.9063 417.14,133.9844 Q417.8275,135.0469 419.1713,135.0469 Q419.7963,135.0469 420.39,134.7813 Q420.9838,134.5 421.6088,133.9219 L421.6088,136.6406 Z " fill="#000000"/><text fill="#000000" font-family="sans-serif" font-size="14" lengthAdjust="spacing" textLength="120.1758" x="432.64" y="135.8467">startup_form.cpp</text><line style="stroke:#181818;stroke-width:0.5;" x1="404.64" x2="554.8158" y1="147" y2="147"/><line style="stroke:#181818;stroke-width:0.5;" x1="404.64" x2="554.8158" y1="155" y2="155"/></g><!--link client_main to client_endpoint--><g class="link" data-entity-1="ent0002" data-entity-2="ent0004" data-link-type="dependency" data-source-line="17" id="lnk9"><path codeLine="17" d="M246.27,55.26 C213.37,72.87 173.6597,94.1381 140.7097,111.7781" fill="none" id="client_main-to-client_endpoint" style="stroke:#181818;stroke-width:1;"/><polygon fill="#181818" points="135.42,114.61,145.2424,113.8887,139.8281,112.2501,141.4666,106.8358,135.42,114.61" style="stroke:#181818;stroke-width:1;"/></g><!--link client_endpoint to key_gen--><g class="link" data-entity-1="ent0004" data-entity-2="ent0006" data-link-type="dependency" data-source-line="18" id="lnk10"><path codeLine="18" d="M91.73,163.26 C91.73,180.94 91.73,199.13 91.73,216.79" fill="none" id="client_endpoint-to-key_gen" style="stroke:#181818;stroke-width:1;"/><polygon fill="#181818" points="91.73,222.79,95.73,213.79,91.73,217.79,87.73,213.79,91.73,222.79" style="stroke:#181818;stroke-width:1;"/></g><!--link client_main to main_window--><g class="link" data-entity-1="ent0002" data-entity-2="ent0007" data-link-type="dependency" data-source-line="19" id="lnk11"><path codeLine="19" d="M289.73,55.26 C289.73,72.94 289.73,91.13 289.73,108.79" fill="none" id="client_main-to-main_window" style="stroke:#181818;stroke-width:1;"/><polygon fill="#181818" points="289.73,114.79,293.73,105.79,289.73,109.79,285.73,105.79,289.73,114.79" style="stroke:#181818;stroke-width:1;"/></g><!--link client_main to startup_form--><g class="link" data-entity-1="ent0002" data-entity-2="ent0008" data-link-type="dependency" data-source-line="20" id="lnk12"><path codeLine="20" d="M331.42,55.26 C362.99,72.87 400.9298,94.0476 432.5598,111.6876" fill="none" id="client_main-to-startup_form" style="stroke:#181818;stroke-width:1;"/><polygon fill="#181818" points="437.8,114.61,431.888,106.7329,433.4332,112.1746,427.9915,113.7198,437.8,114.61" style="stroke:#181818;stroke-width:1;"/></g><!--link server_main to server_endpoint--><g class="link" data-entity-1="ent0003" data-entity-2="ent0005" data-link-type="dependency" data-source-line="23" id="lnk13"><path codeLine="23" d="M678.73,55.26 C678.73,72.94 678.73,91.13 678.73,108.79" fill="none" id="server_main-to-server_endpoint" style="stroke:#181818;stroke-width:1;"/><polygon fill="#181818" points="678.73,114.79,682.73,105.79,678.73,109.79,674.73,105.79,678.73,114.79" style="stroke:#181818;stroke-width:1;"/></g><?plantuml-src RP513i8W44Ntd8AuwQeUmSGOOunBuveW7PLOA05gxUrjAMs7rXqplFdy-MJq-0LHUtulmH5HSkUeA2LepnINcd97DwZU2cCs4NDWFs1d3DK3HZ9wU76Vge8kJ2MrnyfZxuzwWYzwqojxroe5taf1Bz0-GKUDDxIigy9iF4ypfzivKhrXraXTL4qWKPqOyjpwsh17PTNW1ZL6sQnREUmKzUSWytotZ80i8-cPw7CrYrojxh2JmSGr94Nm5mKm3V07?></g></svg>