<?xml version="1.0" encoding="us-ascii" standalone="no"?><svg xmlns="http://www.w3.org/2000/svg" xmlns:xlink="http://www.w3.org/1999/xlink" contentStyleType="text/css" height="966px" preserveAspectRatio="none" style="width:706px;height:966px;background:#FFFFFF;" version="1.1" viewBox="0 0 706 966" width="706px" zoomAndPan="magnify"><defs/><g><rect fill="none" height="79.412" style="stroke:#000000;stroke-width:1.5;" width="332" x="56" y="238.304"/><rect fill="none" height="79.412" style="stroke:#000000;stroke-width:1.5;" width="332" x="311" y="468.2461"/><line style="stroke:#181818;stroke-width:0.5;stroke-dasharray:5.0,5.0;" x1="98" x2="98" y1="39.0679" y2="289.716"/><line style="stroke:#A80036;stroke-width:1.0;stroke-dasharray:1.0,4.0;" x1="98" x2="98" y1="289.716" y2="317.716"/><line style="stroke:#181818;stroke-width:0.5;stroke-dasharray:5.0,5.0;" x1="98" x2="98" y1="317.716" y2="519.6582"/><line style="stroke:#A80036;stroke-width:1.0;stroke-dasharray:1.0,4.0;" x1="98" x2="98" y1="519.6582" y2="547.6582"/><line style="stroke:#181818;stroke-width:0.5;stroke-dasharray:5.0,5.0;" x1="98" x2="98" y1="547.6582" y2="862.3063"/><line style="stroke:#A80036;stroke-width:1.0;stroke-dasharray:1.0,4.0;" x1="98" x2="98" y1="862.3063" y2="890.3063"/><line style="stroke:#181818;stroke-width:0.5;stroke-dasharray:5.0,5.0;" x1="98" x2="98" y1="890.3063" y2="928.3063"/><line style="stroke:#181818;stroke-width:0.5;stroke-dasharray:5.0,5.0;" x1="349" x2="349" y1="39.0679" y2="289.716"/><line style="stroke:#A80036;stroke-width:1.0;stroke-dasharray:1.0,4.0;" x1="349" x2="349" y1="289.716" y2="317.716"/><line style="stroke:#181818;stroke-width:0.5;stroke-dasharray:5.0,5.0;" x1="349" x2="349" y1="317.716" y2="519.6582"/><line style="stroke:#A80036;stroke-width:1.0;stroke-dasharray:1.0,4.0;" x1="349" x2="349" y1="519.6582" y2="547.6582"/><line style="stroke:#181818;stroke-width:0.5;stroke-dasharray:5.0,5.0;" x1="349" x2="349" y1="547.6582" y2="862.3063"/><line style="stroke:#A80036;stroke-width:1.0;stroke-dasharray:1.0,4.0;" x1="349" x2="349" y1="862.3063" y2="890.3063"/><line style="stroke:#181818;stroke-width:0.5;stroke-dasharray:5.0,5.0;" x1="349" x2="349" y1="890.3063" y2="928.3063"/><line style="stroke:#181818;stroke-width:0.5;stroke-dasharray:5.0,5.0;" x1="600" x2="600" y1="39.0679" y2="289.716"/><line style="stroke:#A80036;stroke-width:1.0;stroke-dasharray:1.0,4.0;" x1="600" x2="600" y1="289.716" y2="317.716"/><line style="stroke:#181818;stroke-width:0.5;stroke-dasharray:5.0,5.0;" x1="600" x2="600" y1="317.716" y2="519.6582"/><line style="stroke:#A80036;stroke-width:1.0;stroke-dasharray:1.0,4.0;" x1="600" x2="600" y1="519.6582" y2="547.6582"/><line style="stroke:#181818;stroke-width:0.5;stroke-dasharray:5.0,5.0;" x1="600" x2="600" y1="547.6582" y2="862.3063"/><line style="stroke:#A80036;stroke-width:1.0;stroke-dasharray:1.0,4.0;" x1="600" x2="600" y1="862.3063" y2="890.3063"/><line style="stroke:#181818;stroke-width:0.5;stroke-dasharray:5.0,5.0;" x1="600" x2="600" y1="890.3063" y2="928.3063"/><rect fill="#E2E2F0" height="33.0679" rx="2.5" ry="2.5" style="stroke:#181818;stroke-width:0.5;" width="65" x="66" y="5"/><text fill="#000000" font-family="sans-serif" font-size="14" lengthAdjust="spacing" textLength="51" x="73" y="26.9659">Client 1</text><rect fill="#E2E2F0" height="33.0679" rx="2.5" ry="2.5" style="stroke:#181818;stroke-width:0.5;" width="65" x="66" y="927.3063"/><text fill="#000000" font-family="sans-serif" font-size="14" lengthAdjust="spacing" textLength="51" x="73" y="949.2722">Client 1</text><rect fill="#E2E2F0" height="33.0679" rx="2.5" ry="2.5" style="stroke:#181818;stroke-width:0.5;" width="57" x="321" y="5"/><text fill="#000000" font-family="sans-serif" font-size="14" lengthAdjust="spacing" textLength="43" x="328" y="26.9659">Server</text><rect fill="#E2E2F0" height="33.0679" rx="2.5" ry="2.5" style="stroke:#181818;stroke-width:0.5;" width="57" x="321" y="927.3063"/><text fill="#000000" font-family="sans-serif" font-size="14" lengthAdjust="spacing" textLength="43" x="328" y="949.2722">Server</text><rect fill="#E2E2F0" height="33.0679" rx="2.5" ry="2.5" style="stroke:#181818;stroke-width:0.5;" width="65" x="568" y="5"/><text fill="#000000" font-family="sans-serif" font-size="14" lengthAdjust="spacing" textLength="51" x="575" y="26.9659">Client 2</text><rect fill="#E2E2F0" height="33.0679" rx="2.5" ry="2.5" style="stroke:#181818;stroke-width:0.5;" width="65" x="568" y="927.3063"/><text fill="#000000" font-family="sans-serif" font-size="14" lengthAdjust="spacing" textLength="51" x="575" y="949.2722">Client 2</text><rect fill="#EEEEEE" height="3" style="stroke:#EEEEEE;stroke-width:1.0;" width="699" x="0" y="70.9209"/><line style="stroke:#000000;stroke-width:1.0;" x1="0" x2="699" y1="70.9209" y2="70.9209"/><line style="stroke:#000000;stroke-width:1.0;" x1="0" x2="699" y1="73.9209" y2="73.9209"/><rect fill="#EEEEEE" height="25.706" style="stroke:#000000;stroke-width:2.0;" width="207" x="246" y="59.0679"/><text fill="#000000" font-family="sans-serif" font-size="13" font-weight="bold" lengthAdjust="spacing" textLength="190" x="252" y="76.9649">Diffie-Hellman key exchange</text><polygon fill="#181818" points="337.5,114.4799,347.5,118.4799,337.5,122.4799,341.5,118.4799" style="stroke:#181818;stroke-width:1.0;"/><line style="stroke:#181818;stroke-width:1.0;stroke-dasharray:2.0,2.0;" x1="98.5" x2="343.5" y1="118.4799" y2="118.4799"/><text fill="#000000" font-family="sans-serif" font-size="13" font-weight="bold" lengthAdjust="spacing" textLength="7" x="105.5" y="112.6709">1</text><text fill="#000000" font-family="sans-serif" font-size="13" lengthAdjust="spacing" textLength="172" x="116.5" y="112.6709">Establishes a TCP connection</text><path d="M5,131.4799 L5,194.4799 L193,194.4799 L193,141.4799 L183,131.4799 L5,131.4799 " fill="#FEFFDD" style="stroke:#181818;stroke-width:0.5;"/><path d="M183,131.4799 L183,141.4799 L193,141.4799 L183,131.4799 " fill="#FEFFDD" style="stroke:#181818;stroke-width:0.5;"/><text fill="#000000" font-family="sans-serif" font-size="13" lengthAdjust="spacing" textLength="127" x="11" y="150.377">Client 1 generates his</text><text fill="#000000" font-family="sans-serif" font-size="13" lengthAdjust="spacing" textLength="70" x="11" y="168.083">asymmetric</text><text fill="#000000" font-family="sans-serif" font-size="13" font-weight="bold" lengthAdjust="spacing" textLength="44" x="84" y="168.083">X25519</text><text fill="#000000" font-family="sans-serif" font-size="13" lengthAdjust="spacing" textLength="47" x="131" y="168.083">key pair</text><text fill="#000000" font-family="sans-serif" font-size="13" lengthAdjust="spacing" textLength="4" x="11" y="185.789">(</text><text fill="#000000" font-family="sans-serif" font-size="13" font-weight="bold" lengthAdjust="spacing" textLength="73" x="15" y="185.789">Private key</text><text fill="#000000" font-family="sans-serif" font-size="13" lengthAdjust="spacing" textLength="10" x="91" y="185.789">&amp;</text><text fill="#000000" font-family="sans-serif" font-size="13" font-weight="bold" lengthAdjust="spacing" textLength="66" x="104" y="185.789">Public key</text><text fill="#000000" font-family="sans-serif" font-size="13" lengthAdjust="spacing" textLength="4" x="170" y="185.789">)</text><polygon fill="#181818" points="337.5,219.304,347.5,223.304,337.5,227.304,341.5,223.304" style="stroke:#181818;stroke-width:1.0;"/><line style="stroke:#181818;stroke-width:1.0;stroke-dasharray:2.0,2.0;" x1="98.5" x2="343.5" y1="223.304" y2="223.304"/><text fill="#000000" font-family="sans-serif" font-size="13" font-weight="bold" lengthAdjust="spacing" textLength="7" x="105.5" y="217.495">2</text><text fill="#000000" font-family="sans-serif" font-size="13" lengthAdjust="spacing" textLength="56" x="116.5" y="217.495">Sends his</text><text fill="#000000" font-family="sans-serif" font-size="13" font-weight="bold" lengthAdjust="spacing" textLength="66" x="175.5" y="217.495">public key</text><path d="M56,238.304 L129,238.304 L129,248.01 L119,258.01 L56,258.01 L56,238.304 " fill="#EEEEEE" style="stroke:#000000;stroke-width:1.5;"/><rect fill="none" height="79.412" style="stroke:#000000;stroke-width:1.5;" width="332" x="56" y="238.304"/><text fill="#000000" font-family="sans-serif" font-size="13" font-weight="bold" lengthAdjust="spacing" textLength="28" x="71" y="253.201">loop</text><polygon fill="#181818" points="337.5,277.716,347.5,281.716,337.5,285.716,341.5,281.716" style="stroke:#181818;stroke-width:1.0;"/><line style="stroke:#181818;stroke-width:1.0;stroke-dasharray:2.0,2.0;" x1="98.5" x2="343.5" y1="281.716" y2="281.716"/><text fill="#000000" font-family="sans-serif" font-size="13" font-weight="bold" lengthAdjust="spacing" textLength="7" x="105.5" y="275.907">3</text><text fill="#000000" font-family="sans-serif" font-size="13" lengthAdjust="spacing" textLength="147" x="116.5" y="275.907">Requests peer's (client 2)</text><text fill="#000000" font-family="sans-serif" font-size="13" font-weight="bold" lengthAdjust="spacing" textLength="66" x="266.5" y="275.907">public key</text><polygon fill="#181818" points="360.5,344.4221,350.5,348.4221,360.5,352.4221,356.5,348.4221" style="stroke:#181818;stroke-width:1.0;"/><line style="stroke:#181818;stroke-width:1.0;stroke-dasharray:2.0,2.0;" x1="354.5" x2="599.5" y1="348.4221" y2="348.4221"/><text fill="#000000" font-family="sans-serif" font-size="13" font-weight="bold" lengthAdjust="spacing" textLength="7" x="366.5" y="342.6131">4</text><text fill="#000000" font-family="sans-serif" font-size="13" lengthAdjust="spacing" textLength="172" x="377.5" y="342.6131">Establishes a TCP connection</text><path d="M506,361.4221 L506,424.4221 L694,424.4221 L694,371.4221 L684,361.4221 L506,361.4221 " fill="#FEFFDD" style="stroke:#181818;stroke-width:0.5;"/><path d="M684,361.4221 L684,371.4221 L694,371.4221 L684,361.4221 " fill="#FEFFDD" style="stroke:#181818;stroke-width:0.5;"/><text fill="#000000" font-family="sans-serif" font-size="13" lengthAdjust="spacing" textLength="127" x="512" y="380.3191">Client 2 generates his</text><text fill="#000000" font-family="sans-serif" font-size="13" lengthAdjust="spacing" textLength="70" x="512" y="398.0251">asymmetric</text><text fill="#000000" font-family="sans-serif" font-size="13" font-weight="bold" lengthAdjust="spacing" textLength="44" x="585" y="398.0251">X25519</text><text fill="#000000" font-family="sans-serif" font-size="13" lengthAdjust="spacing" textLength="47" x="632" y="398.0251">key pair</text><text fill="#000000" font-family="sans-serif" font-size="13" lengthAdjust="spacing" textLength="4" x="512" y="415.7311">(</text><text fill="#000000" font-family="sans-serif" font-size="13" font-weight="bold" lengthAdjust="spacing" textLength="73" x="516" y="415.7311">Private key</text><text fill="#000000" font-family="sans-serif" font-size="13" lengthAdjust="spacing" textLength="10" x="592" y="415.7311">&amp;</text><text fill="#000000" font-family="sans-serif" font-size="13" font-weight="bold" lengthAdjust="spacing" textLength="66" x="605" y="415.7311">Public key</text><text fill="#000000" font-family="sans-serif" font-size="13" lengthAdjust="spacing" textLength="4" x="671" y="415.7311">)</text><polygon fill="#181818" points="360.5,449.2461,350.5,453.2461,360.5,457.2461,356.5,453.2461" style="stroke:#181818;stroke-width:1.0;"/><line style="stroke:#181818;stroke-width:1.0;stroke-dasharray:2.0,2.0;" x1="354.5" x2="599.5" y1="453.2461" y2="453.2461"/><text fill="#000000" font-family="sans-serif" font-size="13" font-weight="bold" lengthAdjust="spacing" textLength="7" x="366.5" y="447.4371">5</text><text fill="#000000" font-family="sans-serif" font-size="13" lengthAdjust="spacing" textLength="56" x="377.5" y="447.4371">Sends his</text><text fill="#000000" font-family="sans-serif" font-size="13" font-weight="bold" lengthAdjust="spacing" textLength="66" x="436.5" y="447.4371">public key</text><path d="M311,468.2461 L384,468.2461 L384,477.9521 L374,487.9521 L311,487.9521 L311,468.2461 " fill="#EEEEEE" style="stroke:#000000;stroke-width:1.5;"/><rect fill="none" height="79.412" style="stroke:#000000;stroke-width:1.5;" width="332" x="311" y="468.2461"/><text fill="#000000" font-family="sans-serif" font-size="13" font-weight="bold" lengthAdjust="spacing" textLength="28" x="326" y="483.1431">loop</text><polygon fill="#181818" points="360.5,507.6582,350.5,511.6582,360.5,515.6582,356.5,511.6582" style="stroke:#181818;stroke-width:1.0;"/><line style="stroke:#181818;stroke-width:1.0;stroke-dasharray:2.0,2.0;" x1="354.5" x2="599.5" y1="511.6582" y2="511.6582"/><text fill="#000000" font-family="sans-serif" font-size="13" font-weight="bold" lengthAdjust="spacing" textLength="7" x="366.5" y="505.8492">6</text><text fill="#000000" font-family="sans-serif" font-size="13" lengthAdjust="spacing" textLength="147" x="377.5" y="505.8492">Requests peer's (client 1)</text><text fill="#000000" font-family="sans-serif" font-size="13" font-weight="bold" lengthAdjust="spacing" textLength="66" x="527.5" y="505.8492">public key</text><polygon fill="#181818" points="109.5,574.3642,99.5,578.3642,109.5,582.3642,105.5,578.3642" style="stroke:#181818;stroke-width:1.0;"/><line style="stroke:#181818;stroke-width:1.0;stroke-dasharray:2.0,2.0;" x1="103.5" x2="348.5" y1="578.3642" y2="578.3642"/><text fill="#000000" font-family="sans-serif" font-size="13" font-weight="bold" lengthAdjust="spacing" textLength="7" x="115.5" y="572.5552">7</text><text fill="#000000" font-family="sans-serif" font-size="13" lengthAdjust="spacing" textLength="128" x="126.5" y="572.5552">Sends peer's (client 2)</text><text fill="#000000" font-family="sans-serif" font-size="13" font-weight="bold" lengthAdjust="spacing" textLength="66" x="257.5" y="572.5552">public key</text><polygon fill="#181818" points="588.5,606.0702,598.5,610.0702,588.5,614.0702,592.5,610.0702" style="stroke:#181818;stroke-width:1.0;"/><line style="stroke:#181818;stroke-width:1.0;stroke-dasharray:2.0,2.0;" x1="349.5" x2="594.5" y1="610.0702" y2="610.0702"/><text fill="#000000" font-family="sans-serif" font-size="13" font-weight="bold" lengthAdjust="spacing" textLength="7" x="356.5" y="604.2612">8</text><text fill="#000000" font-family="sans-serif" font-size="13" lengthAdjust="spacing" textLength="128" x="367.5" y="604.2612">Sends peer's (client 1)</text><text fill="#000000" font-family="sans-serif" font-size="13" font-weight="bold" lengthAdjust="spacing" textLength="66" x="498.5" y="604.2612">public key</text><rect fill="#EEEEEE" height="3" style="stroke:#EEEEEE;stroke-width:1.0;" width="699" x="0" y="639.9232"/><line style="stroke:#000000;stroke-width:1.0;" x1="0" x2="699" y1="639.9232" y2="639.9232"/><line style="stroke:#000000;stroke-width:1.0;" x1="0" x2="699" y1="642.9232" y2="642.9232"/><rect fill="#EEEEEE" height="25.706" style="stroke:#000000;stroke-width:2.0;" width="211" x="244" y="628.0702"/><text fill="#000000" font-family="sans-serif" font-size="13" font-weight="bold" lengthAdjust="spacing" textLength="194" x="250" y="645.9672">Shared Secret key generation</text><path d="M68,668.7762 L68,713.7762 L630,713.7762 L630,678.7762 L620,668.7762 L68,668.7762 " fill="#FEFFDD" style="stroke:#181818;stroke-width:0.5;"/><path d="M620,668.7762 L620,678.7762 L630,678.7762 L620,668.7762 " fill="#FEFFDD" style="stroke:#181818;stroke-width:0.5;"/><text fill="#000000" font-family="sans-serif" font-size="13" lengthAdjust="spacing" textLength="150" x="123.5" y="687.6732">Both clients generate the</text><text fill="#000000" font-family="sans-serif" font-size="13" font-weight="bold" lengthAdjust="spacing" textLength="117" x="276.5" y="687.6732">Shared Secret key</text><text fill="#000000" font-family="sans-serif" font-size="13" lengthAdjust="spacing" textLength="26" x="396.5" y="687.6732">with</text><text fill="#000000" font-family="sans-serif" font-size="13" font-weight="bold" lengthAdjust="spacing" textLength="140" x="425.5" y="687.6732">their own private key</text><text fill="#000000" font-family="sans-serif" font-size="13" lengthAdjust="spacing" textLength="23" x="123.5" y="705.3792">and</text><text fill="#000000" font-family="sans-serif" font-size="13" font-weight="bold" lengthAdjust="spacing" textLength="108" x="149.5" y="705.3792">peer's public key</text><text fill="#000000" font-family="sans-serif" font-size="13" lengthAdjust="spacing" textLength="191" x="257.5" y="705.3792">. First 10 hex digits are shown as</text><text fill="#000000" font-family="sans-serif" font-size="13" font-weight="bold" lengthAdjust="spacing" textLength="73" x="451.5" y="705.3792">fingerprint</text><text fill="#000000" font-family="sans-serif" font-size="13" lengthAdjust="spacing" textLength="3" x="524.5" y="705.3792">.</text><polygon fill="#181818" points="109.5,738.8943,99.5,742.8943,109.5,746.8943,105.5,742.8943" style="stroke:#181818;stroke-width:1.0;"/><polygon fill="#181818" points="588.5,738.8943,598.5,742.8943,588.5,746.8943,592.5,742.8943" style="stroke:#181818;stroke-width:1.0;"/><line style="stroke:#181818;stroke-width:1.0;stroke-dasharray:2.0,2.0;" x1="103.5" x2="594.5" y1="742.8943" y2="742.8943"/><text fill="#000000" font-family="sans-serif" font-size="13" font-weight="bold" lengthAdjust="spacing" textLength="7" x="115.5" y="737.0853">9</text><text fill="#000000" font-family="sans-serif" font-size="13" lengthAdjust="spacing" textLength="447" x="126.5" y="737.0853">Clients make sure their fingerprints are identical using an insecure medium.</text><rect fill="#EEEEEE" height="3" style="stroke:#EEEEEE;stroke-width:1.0;" width="699" x="0" y="772.7473"/><line style="stroke:#000000;stroke-width:1.0;" x1="0" x2="699" y1="772.7473" y2="772.7473"/><line style="stroke:#000000;stroke-width:1.0;" x1="0" x2="699" y1="775.7473" y2="775.7473"/><rect fill="#EEEEEE" height="25.706" style="stroke:#000000;stroke-width:2.0;" width="190" x="254.5" y="760.8943"/><text fill="#000000" font-family="sans-serif" font-size="13" font-weight="bold" lengthAdjust="spacing" textLength="173" x="260.5" y="778.7913">End-to-End encrypted chat</text><path d="M67,801.6003 L67,828.6003 L631,828.6003 L631,811.6003 L621,801.6003 L67,801.6003 " fill="#FEFFDD" style="stroke:#181818;stroke-width:0.5;"/><path d="M621,801.6003 L621,811.6003 L631,811.6003 L621,801.6003 " fill="#FEFFDD" style="stroke:#181818;stroke-width:0.5;"/><text fill="#000000" font-family="sans-serif" font-size="13" lengthAdjust="spacing" textLength="247" x="73" y="820.4973">Messages are encrypted/decrypted using</text><text fill="#000000" font-family="sans-serif" font-size="13" font-weight="bold" lengthAdjust="spacing" textLength="81" x="323" y="820.4973">AES-256-GCM</text><text fill="#000000" font-family="sans-serif" font-size="13" lengthAdjust="spacing" textLength="89" x="407" y="820.4973">cipher with the</text><text fill="#000000" font-family="sans-serif" font-size="13" font-weight="bold" lengthAdjust="spacing" textLength="117" x="499" y="820.4973">Shared Secret key</text><polygon fill="#181818" points="337.5,836.3063,347.5,840.3063,337.5,844.3063,341.5,840.3063" style="stroke:#181818;stroke-width:1.0;"/><line style="stroke:#181818;stroke-width:1.0;stroke-dasharray:2.0,2.0;" x1="98.5" x2="343.5" y1="840.3063" y2="840.3063"/><polygon fill="#181818" points="588.5,850.3063,598.5,854.3063,588.5,858.3063,592.5,854.3063" style="stroke:#181818;stroke-width:1.0;"/><line style="stroke:#181818;stroke-width:1.0;stroke-dasharray:2.0,2.0;" x1="349.5" x2="594.5" y1="854.3063" y2="854.3063"/><polygon fill="#181818" points="360.5,892.3063,350.5,896.3063,360.5,900.3063,356.5,896.3063" style="stroke:#181818;stroke-width:1.0;"/><line style="stroke:#181818;stroke-width:1.0;stroke-dasharray:2.0,2.0;" x1="354.5" x2="599.5" y1="896.3063" y2="896.3063"/><polygon fill="#181818" points="109.5,906.3063,99.5,910.3063,109.5,914.3063,105.5,910.3063" style="stroke:#181818;stroke-width:1.0;"/><line style="stroke:#181818;stroke-width:1.0;stroke-dasharray:2.0,2.0;" x1="103.5" x2="348.5" y1="910.3063" y2="910.3063"/><!--SRC=[lLJVRzCm47xtNt7Q0smMAJHIaOOe4fG2BvEgbGTUFUVQd9OumNQszR_dx2HLIb8DX4HVqlZk-v7lRAl6LwOfxz0AKIlhILEjZ8UBLK78p_a5A0SwlinFExPe7z36kej_9mdI0K4gn789dsct8qo-OL6Koi0z7W2VTAxC7c6v5A8JWoJvq173ErWxh-uASZawKF1zjG5T6OFQKsM4C9L7g49dxnJurty2xD6WLPwXERbOKkvGbkWjQP3oHxfOpA-bZ5PgHJQsN4gviVJ0iB3ErHVSkcdOX6uNhWIQ38Bq6SzRhaT91jO3e115LTNJc5lysQ3p3cf4-zB1fUvYlFgTP3QR1GEzTlelUQN3lDB_bbVwLta5aKdSkSpceym2nJ6t3X-e-b7q7fuDVuHDps779i8PsERAOiO8RT777BlCUJpn48nszAkJKNsgVDujkEEumEV8OYDkdiKZSR-Kt40MgaS3zN1KxOXvEEoqTJyqF8ClP1r_oHl8yGaosXEBiWQuF52fCAyTyV6rp6ey8oPEnllJh5QTzrBTCqzZetdsDk1fDIZZFjAgWCPnZMq26OSwG4hCg2bdCT6roH9V9Vm0DDeUQiyPyAtY_oJE6tHExR5LFC9VPzWJjTfIVbnlatJnDlcwkk5K-QhBcJA6UpRxGHRgUDc2yvCtmCJ6YWTzlEydjg_u1G00]--></g></svg>